<svg xmlns="http://www.w3.org/2000/svg" width="48.482" height="50.423" viewBox="0 0 48.482 50.423"><defs><style>.a{fill:#1e232c;}</style></defs><path class="a" d="M0,7.57,7.279,0l7.278,7.57-7.278,7.57Z" transform="translate(8.333)"/><path class="a" d="M0,7.57,7.279,0l7.278,7.57-7.278,7.57Z" transform="translate(33.925 8.666)"/><path class="a" d="M0,7.57,7.279,0l7.278,7.57-7.278,7.57Z" transform="translate(0 26.616)"/><path class="a" d="M0,7.57,7.279,0l7.279,7.57-7.279,7.57Z" transform="translate(25.591 35.282)"/><path class="a" d="M0,15.758V0L6.841,7.117V22.875Z" transform="translate(8.024 9.441)"/><path class="a" d="M0,15.758V0L6.843,7.117V22.873Z" transform="translate(33.616 18.107)"/><path class="a" d="M0,7.117,6.843,0h15.15L15.152,7.117Z" transform="translate(17.411 8.345)"/><path class="a" d="M0,7.115,6.843,0h15.15L15.152,7.115Z" transform="translate(9.078 34.961)"/></svg>