<svg xmlns="http://www.w3.org/2000/svg" xmlns:xlink="http://www.w3.org/1999/xlink" width="113.422" height="32.01" viewBox="0 0 113.422 32.01"><defs><style>.a{fill:none;}.b{clip-path:url(#a);}.c{clip-path:url(#b);}.d{fill:#fff054;}.e{clip-path:url(#c);}.f{fill:#93d1e4;}.g{clip-path:url(#e);}.h{fill:#f39b74;}.i{clip-path:url(#g);}.j{fill:#6a4794;}.k{clip-path:url(#i);}.l{fill:#ffde43;}.m{clip-path:url(#k);}.n{fill:#5ebdb4;}.o{clip-path:url(#m);}.p{fill:#43bbd7;}.q{clip-path:url(#o);}.r{fill:#ec6a70;}.s{clip-path:url(#q);}.t{fill:#3b3b3b;}</style><clipPath id="a"><path class="a" d="M8.464-50.664l5.273-5.273,5.273,5.273-5.273,5.273Z" transform="translate(-8.464 55.936)"/></clipPath><clipPath id="b"><path class="a" d="M0-25.785H113.819V-61H0Z" transform="translate(0 61)"/></clipPath><clipPath id="c"><path class="a" d="M34.216-42.278l5.272-5.273,5.273,5.272-5.272,5.273Z" transform="translate(-34.216 47.551)"/></clipPath><clipPath id="e"><path class="a" d="M.08-24.913l5.272-5.272,5.272,5.272L5.352-19.641Z" transform="translate(-0.08 30.185)"/></clipPath><clipPath id="g"><path class="a" d="M25.831-16.529,31.1-21.8l5.272,5.272L31.1-11.257Z" transform="translate(-25.831 21.801)"/></clipPath><clipPath id="i"><path class="a" d="M13.737-31.359,8.465-36.632v-10.92l5.272,5.273v10.92Z" transform="translate(-8.465 47.552)"/></clipPath><clipPath id="k"><path class="a" d="M39.488-22.975l-5.273-5.272v-10.92l5.273,5.273v10.92Z" transform="translate(-34.215 39.167)"/></clipPath><clipPath id="m"><path class="a" d="M16.849-42.279l5.273-5.273h10.92l-5.273,5.273Z" transform="translate(-16.849 47.552)"/></clipPath><clipPath id="o"><path class="a" d="M8.465-16.529,13.737-21.8h10.92l-5.272,5.272Z" transform="translate(-8.465 21.801)"/></clipPath><clipPath id="q"><path class="a" d="M114.039-34.808v-.878h1.6v8.041a3.326,3.326,0,0,1-.906,2.6,3.327,3.327,0,0,1-2.556,1.026,3.606,3.606,0,0,1-2.767-1.379l1.244-1.021a3.054,3.054,0,0,0,.707.5,1.83,1.83,0,0,0,.845.247,1.85,1.85,0,0,0,1.321-.47,1.812,1.812,0,0,0,.507-1.324l0-.845a2.679,2.679,0,0,1-2.059.955,2.469,2.469,0,0,1-1.29-.341,2.862,2.862,0,0,1-.823-.667,2.539,2.539,0,0,1-.453-.993,10.8,10.8,0,0,1-.145-2.207,11.162,11.162,0,0,1,.146-2.248,2.462,2.462,0,0,1,.453-.977,2.593,2.593,0,0,1,.823-.692A2.725,2.725,0,0,1,114.039-34.808Zm-33.787.1a2.2,2.2,0,0,1,.452,1.024,13.443,13.443,0,0,1,.115,2.127,13.324,13.324,0,0,1-.115,2.1,2.313,2.313,0,0,1-.453,1.04,2.418,2.418,0,0,1-.868.763,2.721,2.721,0,0,1-1.275.309,2.176,2.176,0,0,1-1.1-.277,3.475,3.475,0,0,1-.96-.695v4.213h-1.6V-35.686h1.6v.856a2.723,2.723,0,0,1,2.059-.96A2.456,2.456,0,0,1,80.251-34.71Zm51.062-1.081a4.169,4.169,0,0,1,2.4.587,2.43,2.43,0,0,1,.914,2.127v5.628h-1.6l-.008-.728h-.031a1.348,1.348,0,0,1-.692.619,3.2,3.2,0,0,1-1.275.206,2.856,2.856,0,0,1-2.059-.73,2.315,2.315,0,0,1-.761-1.786,2.376,2.376,0,0,1,.661-1.722A2.588,2.588,0,0,1,130.8-32.3h2.221v-.869q.015-1.092-1.635-1.061a2.806,2.806,0,0,0-.943.126,1.167,1.167,0,0,0-.569.51l-1.258-.993A3.072,3.072,0,0,1,131.313-35.791Zm-70.791,0a6.267,6.267,0,0,1,.992.071,4.8,4.8,0,0,1,.824.223,4.677,4.677,0,0,1,1.321.833l-.987,1.2a4.941,4.941,0,0,0-.978-.569,3.188,3.188,0,0,0-1.172-.2,1.553,1.553,0,0,0-1.055.278.91.91,0,0,0-.314.716.566.566,0,0,0,.239.485,1.361,1.361,0,0,0,.817.294l1.325.1a2.452,2.452,0,0,1,1.8.779,2.687,2.687,0,0,1,.516,1.693,2.165,2.165,0,0,1-.943,1.852,4.01,4.01,0,0,1-2.361.684,4.988,4.988,0,0,1-3.515-1.476l1.111-1.136a3.292,3.292,0,0,0,2.529,1.056,2.088,2.088,0,0,0,1.132-.278.873.873,0,0,0,.44-.778.692.692,0,0,0-.262-.619,1.351,1.351,0,0,0-.716-.2l-1.418-.126a2.661,2.661,0,0,1-1.643-.7,2.151,2.151,0,0,1-.662-1.643,2.258,2.258,0,0,1,.869-1.905A3.374,3.374,0,0,1,60.522-35.789Zm64.1,0a3.537,3.537,0,0,1,1.635.4,4.1,4.1,0,0,1,1.229,1.037L126.3-33.271a1.991,1.991,0,0,0-1.623-.868q-2.045-.031-2.075,2.578.031,2.6,2.075,2.557a1.943,1.943,0,0,0,1.622-.86l1.187,1.092a4.339,4.339,0,0,1-1.231,1,3.377,3.377,0,0,1-1.639.418,3.53,3.53,0,0,1-2.479-.992A4.21,4.21,0,0,1,121-31.558a4.3,4.3,0,0,1,1.138-3.255A3.473,3.473,0,0,1,124.622-35.789Zm-38.845,0a3.264,3.264,0,0,1,2.313.929,3.441,3.441,0,0,1,.976,2.556v1.364l-4.978,0a1.963,1.963,0,0,0,.554,1.509A1.813,1.813,0,0,0,86-28.907a2.363,2.363,0,0,0,1.747-.8L88.9-28.685a3.71,3.71,0,0,1-2.875,1.333A4.032,4.032,0,0,1,84.8-27.54a2.931,2.931,0,0,1-.584-.278,2.78,2.78,0,0,1-.561-.373,3.278,3.278,0,0,1-.823-1.286,5.212,5.212,0,0,1-.346-2.064,5.9,5.9,0,0,1,.3-2.032,3.542,3.542,0,0,1,.768-1.3,2.852,2.852,0,0,1,1.069-.7A3.324,3.324,0,0,1,85.778-35.787Zm-18.461.1v4.912a1.793,1.793,0,0,0,.454,1.3A1.5,1.5,0,0,0,68.908-29a1.48,1.48,0,0,0,1.132-.469,1.814,1.814,0,0,0,.446-1.3v-4.912h1.6v8.238h-1.6v-.88h-.031a2.534,2.534,0,0,1-2.066.977A2.657,2.657,0,0,1,66.6-28.1a2.607,2.607,0,0,1-.884-2.107v-5.482Zm38.637.222a2.9,2.9,0,0,1,.892.738,2.61,2.61,0,0,1,.674,1.151,7.99,7.99,0,0,1,.192,2,7.792,7.792,0,0,1-.192,1.984,2.848,2.848,0,0,1-.677,1.183,2.521,2.521,0,0,1-.377.357,1.734,1.734,0,0,1-.515.341,3.116,3.116,0,0,1-1.529.357A3.281,3.281,0,0,1,102-28.407a3.2,3.2,0,0,1-.661-1.183,7.216,7.216,0,0,1-.207-1.984,7.432,7.432,0,0,1,.208-2A2.915,2.915,0,0,1,102-34.731a3.022,3.022,0,0,1,.922-.734,3.327,3.327,0,0,1,1.5-.324A3.4,3.4,0,0,1,105.954-35.464ZM98.94-39.02v9.454q0,.566.6.566h.555v1.555h-.715a2.254,2.254,0,0,1-1.446-.451,1.824,1.824,0,0,1-.6-1.542l0-9.583ZM96.4-35.156l-1.17,1.431a1.656,1.656,0,0,0-1.055-.413,1.483,1.483,0,0,0-1.055.413,1.643,1.643,0,0,0-.508,1.312v4.968h-1.6v-8.241h1.6v.873h.034a2.626,2.626,0,0,1,1.8-.965A2.626,2.626,0,0,1,96.4-35.156Zm22.967-.531v8.238h-1.6v-8.238Zm13.654,4.747H131.1q-1.4.032-1.383.993a.89.89,0,0,0,.362.715,1.651,1.651,0,0,0,1.148.326,2.749,2.749,0,0,0,1.425-.246q.377-.262.377-1.195Zm-55.4-3.2a1.414,1.414,0,0,0-.853.231,1.343,1.343,0,0,0-.485.6,3.127,3.127,0,0,0-.192.812q-.046.462-.047.932a8.336,8.336,0,0,0,.047.876,3.155,3.155,0,0,0,.192.836,1.348,1.348,0,0,0,.485.606,1.383,1.383,0,0,0,.74.24h.113l.119,0a1.585,1.585,0,0,0,.782-.225,1.264,1.264,0,0,0,.47-.589,3.172,3.172,0,0,0,.208-.828q.015-.446.015-.916c0-.33-.005-.65-.015-.964a2.969,2.969,0,0,0-.208-.828,1.168,1.168,0,0,0-.47-.589A1.739,1.739,0,0,0,77.624-34.139Zm34.052.2a1.841,1.841,0,0,0-.492.44,1.153,1.153,0,0,0-.252.606,9.571,9.571,0,0,0-.063,1.338,9.04,9.04,0,0,0,.063,1.306,1.247,1.247,0,0,0,.252.621,1.477,1.477,0,0,0,.492.406,1.49,1.49,0,0,0,1.572,0,1.509,1.509,0,0,0,.477-.406,1.36,1.36,0,0,0,.269-.621,12.092,12.092,0,0,0,.047-1.306,12.792,12.792,0,0,0-.047-1.338,1.251,1.251,0,0,0-.269-.606,1.911,1.911,0,0,0-.477-.44A1.643,1.643,0,0,0,111.676-33.943Zm-7.253-.2a1.719,1.719,0,0,0-.755.167,1.432,1.432,0,0,0-.539.44,1.936,1.936,0,0,0-.3.685,6.256,6.256,0,0,0-.093,1.275,6.073,6.073,0,0,0,.093,1.258,2.109,2.109,0,0,0,.3.717,1.963,1.963,0,0,0,.539.422,1.649,1.649,0,0,0,.755.175,1.622,1.622,0,0,0,.77-.175,1.524,1.524,0,0,0,.524-.422,1.675,1.675,0,0,0,.314-.717,7.173,7.173,0,0,0,.079-.994l0-.248a7.648,7.648,0,0,0-.077-1.29,1.545,1.545,0,0,0-.314-.685,1.187,1.187,0,0,0-.524-.44A1.691,1.691,0,0,0,104.423-34.141Zm-19.836.377a2.256,2.256,0,0,0-.5,1.46h3.379a2.147,2.147,0,0,0-.5-1.46A1.732,1.732,0,0,0,84.587-33.764Zm22.307-5.351-2.234,2.364h-1.321l1.443-2.364Zm12.474.095v1.651h-1.6V-39.02Z" transform="translate(-57.033 39.115)"/></clipPath></defs><g class="b" transform="translate(5.272)"><g class="c" transform="translate(-5.322 -3.184)"><path class="d" d="M1.393-53.288l9.719-9.719,9.719,9.719-9.719,9.719Z" transform="translate(-0.517 61.745)"/></g></g><g class="e" transform="translate(21.466 5.273)"><g class="c" transform="translate(-21.516 -8.457)"><path class="f" d="M27.145-44.9l9.719-9.72,9.72,9.719-9.719,9.72Z" transform="translate(-10.075 58.633)"/></g></g><g class="g" transform="translate(0 16.193)"><g class="c" transform="translate(-0.05 -19.377)"><path class="h" d="M-6.991-27.538l9.719-9.719,9.719,9.719L2.728-17.819Z" transform="translate(2.595 52.187)"/></g></g><g class="i" transform="translate(16.193 21.465)"><g class="c" transform="translate(-16.243 -24.65)"><path class="j" d="M18.76-19.153l9.719-9.719L38.2-19.153,28.479-9.435Z" transform="translate(-6.963 49.075)"/></g></g><g class="k" transform="translate(5.273 5.272)"><g class="c" transform="translate(-5.323 -8.457)"><path class="l" d="M3.465-52.552h11.56v22.481H3.465Z" transform="translate(-1.286 57.864)"/></g></g><g class="m" transform="translate(21.465 10.545)"><g class="c" transform="translate(-21.515 -13.729)"><path class="n" d="M29.215-44.167H40.776v22.481H29.215Z" transform="translate(-10.844 54.752)"/></g></g><g class="o" transform="translate(10.545 5.272)"><g class="c" transform="translate(-10.595 -8.457)"><path class="p" d="M11.849-52.552H34.33v11.561H11.849Z" transform="translate(-4.398 57.864)"/></g></g><g class="q" transform="translate(5.273 21.465)"><g class="c" transform="translate(-5.323 -24.65)"><path class="r" d="M3.465-26.8H25.946v11.56H3.465Z" transform="translate(-1.286 48.306)"/></g></g><g class="s" transform="translate(35.814 10.578)"><g class="c" transform="translate(-35.864 -13.762)"><path class="t" d="M52.033-44.115h83.9v21.389h-83.9Z" transform="translate(-19.313 54.733)"/></g></g></svg>