<svg xmlns="http://www.w3.org/2000/svg" xmlns:xlink="http://www.w3.org/1999/xlink" width="791.737" height="645.028" viewBox="0 0 791.737 645.028"><defs><style>.a,.b{fill:#00deb9;}.a,.c,.e,.g{clip-rule:evenodd;}.c,.d{fill:url(#a);}.e,.f{fill:url(#c);}.g,.h{fill:url(#e);}.i{fill:url(#g);}.j{fill:url(#h);}.k{fill:url(#i);}.af,.l{fill:#95bde5;}.m{fill:url(#j);}.n{fill:url(#k);}.o{fill:url(#l);}.p{fill:#3070a3;}.q{fill:#ebb2f8;}.r{fill:#f4c5ff;}.an,.ao,.aq,.bf,.bw,.s{fill:#fff;}.t{clip-path:url(#m);}.u{clip-path:url(#n);}.v{clip-path:url(#o);}.w{clip-path:url(#p);}.x{clip-path:url(#r);}.y{clip-path:url(#s);}.z{clip-path:url(#u);}.aa{clip-path:url(#v);}.ab{clip-path:url(#y);}.ac{fill:#043ec4;}.ad{clip-path:url(#aa);}.ae{clip-path:url(#ac);}.af,.al,.ap{mix-blend-mode:multiply;isolation:isolate;}.ag{fill:url(#ad);}.ah{clip-path:url(#ae);}.ai{fill:#0f1782;}.aj{clip-path:url(#af);}.ak{clip-path:url(#ah);}.al{fill:#c2d6ff;}.am{fill:#080f51;}.an{opacity:0.3;}.ao{opacity:0.6;}.aq{opacity:0;}.ar{fill:#fefeff;opacity:0.071;}.as{fill:#fdfefe;opacity:0.143;}.at{fill:#fcfdfe;opacity:0.214;}.au{fill:#fbfcfd;opacity:0.286;}.av{fill:#fafcfd;opacity:0.357;}.aw,.ax{fill:#f9fbfc;}.aw{opacity:0.429;}.ax,.bw{opacity:0.5;}.ay{fill:#f8fafc;opacity:0.571;}.az{fill:#f7f9fb;opacity:0.643;}.ba{fill:#f6f9fb;opacity:0.714;}.bb{fill:#f5f8fa;opacity:0.786;}.bc{fill:#f4f7fa;opacity:0.857;}.bd{fill:#f3f7f9;opacity:0.929;}.be{fill:#f2f6f9;}.bf{opacity:0.84;}.bg{fill:#0168ff;}.bh{fill:#d9e2f4;}.bi{fill:url(#ai);}.bj{clip-path:url(#aj);}.bk{fill:url(#ak);}.bl{fill:url(#al);}.bm{clip-path:url(#am);}.bn{fill:url(#ao);}.bo{clip-path:url(#ap);}.bp{clip-path:url(#aq);}.bq{clip-path:url(#ar);}.br{clip-path:url(#as);}.bs{fill:url(#at);}.bt{fill:url(#au);}.bu{clip-path:url(#av);}.bv{fill:url(#aw);}</style><linearGradient id="a" x1="0.848" y1="-0.255" x2="0.099" y2="1.272" gradientUnits="objectBoundingBox"><stop offset="0" stop-color="#ff5720"/><stop offset="1" stop-color="#ffc02a"/></linearGradient><linearGradient id="c" x1="0.5" x2="0.5" y2="1" gradientUnits="objectBoundingBox"><stop offset="0" stop-color="#00dec3"/><stop offset="1" stop-color="#ffd777"/></linearGradient><linearGradient id="e" x1="0.855" y1="0.26" x2="0.109" y2="0.817" gradientUnits="objectBoundingBox"><stop offset="0" stop-color="#00b8ff"/><stop offset="1" stop-color="#00dec3"/></linearGradient><linearGradient id="g" x1="-1.33" y1="0.415" x2="1.113" y2="0.54" gradientUnits="objectBoundingBox"><stop offset="0.037" stop-color="#0f1782"/><stop offset="0.123" stop-color="#0f1782"/><stop offset="1" stop-color="#0168ff"/></linearGradient><linearGradient id="h" x1="-1.276" y1="0.126" x2="0.585" y2="0.59" xlink:href="#g"/><linearGradient id="i" x1="1.06" y1="1.52" x2="0.508" y2="0.413" gradientUnits="objectBoundingBox"><stop offset="0.123" stop-color="#673fe4"/><stop offset="0.627" stop-color="#f9329c"/></linearGradient><linearGradient id="j" x1="0.606" y1="0.493" x2="1.592" y2="0.655" gradientUnits="objectBoundingBox"><stop offset="0" stop-color="#f9329c"/><stop offset="1" stop-color="#f95b47"/></linearGradient><linearGradient id="k" x1="3.613" y1="-1.605" x2="-1.357" y2="1.628" gradientUnits="objectBoundingBox"><stop offset="0" stop-color="#8634f2"/><stop offset="1" stop-color="#b8d5ff"/></linearGradient><linearGradient id="l" x1="2.646" y1="-0.201" x2="-4.262" y2="2.361" xlink:href="#k"/><clipPath id="m"><path class="a" d="M0,42.024C11.677,236.166,179.363,385.762,371.239,374.841S713.282,194.144,701.605,0" transform="translate(0 0)"/></clipPath><clipPath id="n"><rect class="b" width="15344.607" height="10074.496"/></clipPath><clipPath id="o"><path class="c" d="M0,5.048c1.4,23.32,21.545,41.29,44.593,39.978S85.679,23.321,84.277,0"/></clipPath><clipPath id="p"><rect class="d" width="1843.195" height="1210.15"/></clipPath><clipPath id="r"><path class="e" d="M485.3,1387.145c-12.722-7.419-27.953-6.7-37.092,2.714s-9.317,24.971-1.433,37.456c-3.226,3.437-6.63,6.875-9.856,10.314-16.485-16.1-17.022-43.246-.9-59.894a41.786,41.786,0,0,1,59.311-.9C491.932,1380.269,488.706,1383.707,485.3,1387.145Z" transform="translate(-424.238 -1364.928)"/></clipPath><clipPath id="s"><rect class="f" width="3296.441" height="2164.275"/></clipPath><clipPath id="u"><path class="g" d="M39.12,2.708C30.11,1.832,21.18.956,12.171,0,8.14,8.2,4.031,16.489,0,24.694c8.772.478,17.624.956,26.4,1.434C30.663,18.4,34.852,10.515,39.12,2.708Z"/></clipPath><clipPath id="v"><rect class="h" width="1455.041" height="955.308"/></clipPath><clipPath id="y"><path class="i" d="M880.774,716.676c2.776,6.052-7.163,13.306-24.036,38.84-12.836,19.424-2.419,25.943-21.644,57.192-6.674,10.849-16.759,15.712-10.084,25.389,10.833,15.706,15.49,28.063,18.774,30.643,8.366,6.573,14.179,3.894,9.776-7.338-3.522-8.983-6.916-29.774-1.408-39.741,10.023-18.134,52.477-82.632,65.664-98.907,6.446-7.954.224-22.044-9.79-43.093-15.036-31.6-38.622-72.069-40.721-76.49C851.86,570.662,833.13,612.8,880.774,716.676Z" transform="translate(-822.82 -592.416)"/></clipPath><clipPath id="aa"><path class="j" d="M780.578,566.555c-15.571,25.779-12.59,48.311.492,68.279,17.084,26.076,52.114,65.983,52.114,72.641s-1.66.336-28.335,15.341c-20.291,11.414-14,21.972-45.383,40.987-10.892,6.6-22.086,6.319-20.569,17.976,2.461,18.921.958,32.041,2.7,35.836,4.439,9.67,10.834,9.942,12.048-2.061.971-9.6,7.451-29.644,16.905-35.994,17.2-11.552,70.144-38.736,88.89-48.083,19.64-9.793,20.657-25.23,11.88-41.216-8.425-15.345-41.758-102.33-41.758-102.33l-37.621-24.593Z" transform="translate(-738.758 -563.339)"/></clipPath><clipPath id="ac"><path class="k" d="M854.725,353.458c-7.835,12.324,5.633,21.5-9-1.787-15.009-23.874,10.47-60.314,31.562-47.936,0,0,6.794-6.4,21.305,1.707s8.749,36.386,16.645,43.215,7.042,23.581,1.281,29.77-3.628,12.164,2.56,19.847,4.284,28.169-9.923,31.37c-17.3,3.9-23.582-14.085-24.862-26.035s-14.725-26.889-14.725-26.889Z" transform="translate(-841.206 -301.238)"/></clipPath><linearGradient id="ad" x1="0.11" y1="0.427" x2="1.614" y2="0.916" xlink:href="#g"/><clipPath id="ae"><path class="l" d="M858.849,360.459c0-7.682-1.3-7.149-1.3-7.149-.7-2.169.3-5.945-3.719-7.042-7.877-2.154-6.619,17.306-2.775,17.019,4.947-.368-5.721,14.691-5.721,14.691C843.717,383.562,874.2,391.4,874.2,391.4c-1.147-8.029,3.133-17.153,4.28-22.889C879.359,364.094,866,359.855,858.849,360.459Z" transform="translate(-845.276 -346.102)"/></clipPath><clipPath id="af"><path class="l" d="M865.143,329.487c-3.38,17.1-7.339,23.319-2.241,31.85,7.492,12.538,10.2,12.831,16.657,13.976,6.318,1.12,15.943-14.909,17.618-18.191,2.667-5.229.57-5.708,1.921-11.319.868-3.605,1.841-3.729,2.858-10.876C904.665,315.882,869.287,308.519,865.143,329.487Z" transform="translate(-860.464 -316.826)"/></clipPath><clipPath id="ah"><path class="m" d="M862.317,338.694c3.536,2.668,8.332,1.541,11.64-3.473s8.643-19.847,19.1-12.7c1.949,1.332,6.856-4.455,4.26,8.429-1.609,7.984.489,16.326,4.436,24.328s3.143,16.646-1.709,32.651,5.95,34.066,27.278,29.917c0,0,4.042-12.471,1.3-17.914-5.47-10.867-7.025-12.644-1.583-21.927s7.843-19.527.267-27.637-6.029-25.181-9.87-34.625-21.164-19.9-33.95-12.11c0,0-7.174-3-13.907,4.428C858.408,320.389,862.317,338.694,862.317,338.694Z" transform="translate(-861.655 -300.914)"/></clipPath><linearGradient id="ai" x1="3.613" y1="-1.605" x2="-1.357" y2="1.628" xlink:href="#g"/><clipPath id="aj"><path class="n" d="M954.544,1020.153c-19.718,14.9-35.32,10.675-44.067,7.083-14.69-6.034-24.24-7.135-16.919,7.344,5.9,11.672,23.009,15.332,34.493,22.016,13.315,7.75,16.27-8.9,31.632-16.52C976.632,1031.671,954.544,1020.153,954.544,1020.153Z" transform="translate(-891.039 -1020.153)"/></clipPath><linearGradient id="ak" x1="0.5" y1="0" x2="0.5" y2="1" xlink:href="#k"/><linearGradient id="al" x1="2.646" y1="-0.201" x2="-4.262" y2="2.361" xlink:href="#g"/><clipPath id="am"><path class="o" d="M1144.94,1066c2.284,24.608-10.911,21.678-18.364,23.391-15.477,3.556-17.513,15.347-1.349,16.747,13.03,1.129,24.656,7.914,36.386,1.67,13.6-7.239,1-18.52,2.611-35.591C1166,1053.38,1144.94,1066,1144.94,1066Z" transform="translate(-1114.002 -1061.861)"/></clipPath><linearGradient id="ao" x1="1.284" y1="1.104" x2="-1.026" y2="-0.938" gradientUnits="objectBoundingBox"><stop offset="0.123" stop-color="#fff"/><stop offset="0.852" stop-color="#0168ff"/><stop offset="1" stop-color="#0168ff"/></linearGradient><clipPath id="ap"><path class="p" d="M1332.667,701.394c4.727,6.592-34.717,8.746-33.57.717s-4.952-21.88-6.1-27.616c-.766-3.833,26.412-27.23,30.936,3.209C1324.949,684.525,1327.82,694.635,1332.667,701.394Z" transform="translate(-1292.983 -662.297)"/></clipPath><clipPath id="aq"><path class="q" d="M1263.591,596.654a24.358,24.358,0,0,1,22.487,1.143c3.388,1.943,7.813,1.374,11.058-.013,7.768-3.318,28.182,5.83,26.167,21.905-4.457,6.89-4.147,6.4-13,10.88-5.28,2.668-31.685-1.682-34.124,2.181l-4.708-4.74C1259.449,631.363,1241.284,606.87,1263.591,596.654Z" transform="translate(-1253.041 -594.44)"/></clipPath><clipPath id="ar"><path class="r" d="M1294.929,628.484c14.174,6.863,33.911,8.558,38.457,1.431-2.828,17.847-6.584,28.826-10.32,42.2l-17.812,2.77-19-31.912C1288.7,638.712,1289.487,625.85,1294.929,628.484Z" transform="translate(-1286.258 -628.132)"/></clipPath><clipPath id="as"><path class="p" d="M1296.245,653.555c1.424,3.454,2.767,9.258-.118,13,4.49,6.365,12.08,10.132,11.522,10.355-8.1,3.241-17,6.245-20,6.314-6.415.148-9.748-19.53-10.173-23.19-.678-5.83,1.93-6.6,2.62-12.327.39-3.245-2.263-9.318-2.263-9.318,4.71-2.218,5.516-1.633,10.615,11.578C1289.678,653.158,1291.9,643,1296.245,653.555Z" transform="translate(-1277.363 -637.396)"/></clipPath><linearGradient id="at" x1="1.244" y1="1.898" x2="0.031" y2="-0.396" gradientUnits="objectBoundingBox"><stop offset="0" stop-color="#673fe4"/><stop offset="1" stop-color="#f9329c"/></linearGradient><linearGradient id="au" x1="0.753" y1="4.252" x2="0.477" y2="0.096" xlink:href="#at"/><clipPath id="av"><path class="s" d="M1309.834,700.243c-7.1-5.586-15.6.217-21.011-6.766-5.308,6.268-41.543,15.541-43.051,13.706,0,0-4.262,13.891-11.147,19.274-4.742,3.707-9.991,6.695-12.609,9.995-.1-.094-12.067,26.211-23.563,40.414-13.278,16.4-17.61,23.571-21.617,21.11s-16.774-8.26-18.512-9.326-11.395,14.593-5.251,19.866,25.14,20.417,33.547,19.484c6.367-.706,32.1-26.457,46.425-43.9,5.955,21.346-5.572,49.235-4.411,59.6,2.677,23.907,79.142,18.394,88.954-13.552C1326.327,796.537,1328.882,715.226,1309.834,700.243Z" transform="translate(-1151.05 -693.477)"/></clipPath><linearGradient id="aw" x1="1.09" y1="0.654" x2="0.385" y2="0.431" gradientUnits="objectBoundingBox"><stop offset="0" stop-color="#fff"/><stop offset="1" stop-color="#c2dbff"/></linearGradient></defs><g transform="translate(-857.561 -127.819)"><g class="t" transform="translate(857.561 424.779) rotate(-22)"><g transform="translate(-5443.307 -3262.48)"><g class="u"><rect class="b" width="783.951" height="457.108" transform="translate(5402.452 3221.626)"/></g></g></g><g transform="translate(905.882 127.819)"><g transform="matrix(0.53, -0.848, 0.848, 0.53, 528.041, 292.794)"><g class="v" transform="translate(0 0)"><g transform="translate(-653.85 -391.89)"><g class="w"><rect class="d" width="94.168" height="54.908" transform="translate(648.943 386.982)"/></g></g></g></g><g transform="translate(0 114.195)"><g class="x"><g transform="translate(-1361 -1087.018)"><g class="y"><rect class="f" width="88.651" height="90.254" transform="translate(1352.223 1078.241)"/></g></g></g></g><g transform="matrix(0.342, -0.94, 0.94, 0.342, 195.067, 36.76)"><g class="z" transform="translate(0 0)"><g transform="translate(-485.905 -157.943)"><g class="aa"><rect class="h" width="46.867" height="33.876" transform="translate(482.031 154.069)"/></g></g></g></g></g><g transform="translate(955.583 133.14)"><g transform="translate(0 61.176)"><path class="l" d="M866.347,380.192c-8.609,19.495-2.13,30.225,17.04,43.151,11.982,8.079,33.694,15.323,49.186,20.527,9.3,3.123,14.988,7.668,18.816,5.182,24.585-15.961,36.888-46.449,60.143-82.638a16.44,16.44,0,0,0-9.284-4.957s-29.029,36.751-41.21,50.042l-13.362,14.58s-25.88-10.468-42.045-20.318S866.347,380.192,866.347,380.192Z" transform="translate(-776.348 -319.29)"/><path class="l" d="M1063.752,335.539c1.073,3.93-.178,5.967-.375,8.328s.86,3.547-.324,5.643,7.481,6.76,9.284,4.957,5.86-6.4,6.844-8.567a10.878,10.878,0,0,0-.393-8.329c-1.246-2.492-2.1-3.016-1.64-4.656s4.984-7.668,4.787-10-2.557.555-5.836,5.146a92.037,92.037,0,0,1-7.411,9.312c-1.181,1.181-.394-.394-1.443-2.755s-2.594-3.475-3.494-3.147S1063.144,333.309,1063.752,335.539Z" transform="translate(-837.153 -307.342)"/><g transform="translate(58.548 203.027)"><path class="i" d="M880.774,716.676c2.776,6.052-7.163,13.306-24.036,38.84-12.836,19.424-2.419,25.943-21.644,57.192-6.674,10.849-16.759,15.712-10.084,25.389,10.833,15.706,15.49,28.063,18.774,30.643,8.366,6.573,14.179,3.894,9.776-7.338-3.522-8.983-6.916-29.774-1.408-39.741,10.023-18.134,52.477-82.632,65.664-98.907,6.446-7.954.224-22.044-9.79-43.093-15.036-31.6-38.622-72.069-40.721-76.49C851.86,570.662,833.13,612.8,880.774,716.676Z" transform="translate(-822.82 -592.416)"/><g class="ab"><path class="ac" d="M819.332,918.865c-.106,9.934,2.2,16.6,8.032,26.315,8.426,14.048,8.56,20.5,13.316,22.193s7.292.423,8.56-2.325,19.023,24.1,19.023,24.1l-50.731-7.4L799.357,955.8l5.707-29.011Z" transform="translate(-815.698 -691.499)"/></g></g><path class="l" d="M852.982,875.6c-1.057,5.178,13.13,17.952,16.225,13.668,5.3-7.338,12.116-19.193,12.116-19.193s-21.3-2.148-23.5-11.878C857.82,858.2,854.253,869.376,852.982,875.6Z" transform="translate(-773.41 -470.059)"/><g transform="translate(0 182.775)"><path class="j" d="M780.578,566.555c-15.571,25.779-12.59,48.311.492,68.279,17.084,26.076,52.114,65.983,52.114,72.641s-1.66.336-28.335,15.341c-20.291,11.414-14,21.972-45.383,40.987-10.892,6.6-22.086,6.319-20.569,17.976,2.461,18.921.958,32.041,2.7,35.836,4.439,9.67,10.834,9.942,12.048-2.061.971-9.6,7.451-29.644,16.905-35.994,17.2-11.552,70.144-38.736,88.89-48.083,19.64-9.793,20.657-25.23,11.88-41.216-8.425-15.345-41.758-102.33-41.758-102.33l-37.621-24.593Z" transform="translate(-738.758 -563.339)"/><g class="ad"><path class="ac" d="M722.095,847.4c-5.5,15.641-4.122,30.859-4.333,41.745s.312,17.858,7.607,18.916,3.754,66.952,3.754,66.952l-78.471-48.033,25.206-76.569Z" transform="translate(-712.016 -649.555)"/></g></g><path class="l" d="M792.909,826.556c-3.382,4.063,3.26,21.945,7.985,19.576,8.142-4.081,21.294-11.546,21.294-11.546-10.594-1.9-16.518-22.817-16.518-22.817S797.247,821.346,792.909,826.556Z" transform="translate(-754.913 -455.967)"/><g transform="translate(71.353 0.226)"><path class="k" d="M854.725,353.458c-7.835,12.324,5.633,21.5-9-1.787-15.009-23.874,10.47-60.314,31.562-47.936,0,0,6.794-6.4,21.305,1.707s8.749,36.386,16.645,43.215,7.042,23.581,1.281,29.77-3.628,12.164,2.56,19.847,4.284,28.169-9.923,31.37c-17.3,3.9-23.582-14.085-24.862-26.035s-14.725-26.889-14.725-26.889Z" transform="translate(-841.206 -301.238)"/><g class="ae"><path class="af" d="M890.488,338.639l19.029,28.084v32.308l28.535,29.8L924.509,440.6l-27.251.071s-43.644-36.99-43.8-38.258,6.874-32.24,6.874-32.24l14.525-41.068Z" transform="translate(-844.922 -309.697)"/></g></g><g transform="translate(37.068 53.206)"><path class="ag" d="M818.689,377.306c13.384,7.089,39.331,23.561,39.331,23.561l5.431-6.291c11.24,6.291,11.939,11.661,14.326,25.4,8.539,49.165-3.71,37.024-13.1,81.783-2.328,11.092-8.818,20.486-8.818,32.2-10.036,4.035-68.366,4-63.6-15.042a225.573,225.573,0,0,1,13.815-24.73c8.561-13.316-2.8-35.506-7.868-53.261s-11.065-24.2,12.654-46.135Z" transform="translate(-791.98 -377.306)"/></g><g transform="translate(74.188 31.473)"><path class="l" d="M858.849,360.459c0-7.682-1.3-7.149-1.3-7.149-.7-2.169.3-5.945-3.719-7.042-7.877-2.154-6.619,17.306-2.775,17.019,4.947-.368-5.721,14.691-5.721,14.691C843.717,383.562,874.2,391.4,874.2,391.4c-1.147-8.029,3.133-17.153,4.28-22.889C879.359,364.094,866,359.855,858.849,360.459Z" transform="translate(-845.276 -346.102)"/><g class="ah"><path class="af" d="M863.142,375.657c1.1,18.667,9.793,23.9,17.762,25.382l1.192-9.756Z" transform="translate(-850.699 -355.072)"/></g></g><path class="ai" d="M886.661,406.523c-1-7.514.664-9.829.814-10.454s6.027,1.05,4.336,5.227A8.973,8.973,0,0,1,886.661,406.523Z" transform="translate(-783.552 -329.756)"/><path class="af" d="M858.542,355.666c-2.621-4.994-3.379-4.5-4.409-2.283s-1.532,10.527,3.39,9.416C863.618,361.425,858.542,355.666,858.542,355.666Z" transform="translate(-773.57 -316.351)"/><g transform="translate(84.766 11.083)"><path class="l" d="M865.143,329.487c-3.38,17.1-7.339,23.319-2.241,31.85,7.492,12.538,10.2,12.831,16.657,13.976,6.318,1.12,15.943-14.909,17.618-18.191,2.667-5.229.57-5.708,1.921-11.319.868-3.605,1.841-3.729,2.858-10.876C904.665,315.882,869.287,308.519,865.143,329.487Z" transform="translate(-860.464 -316.826)"/><g class="aj"><path class="af" d="M915.647,428.605c7.088-1.6,11.113-7.5,12.6-13.964l-6.65-22.148-7.186-63.2-11.656-31.475-40.148,4.847v35.092c9.826,4.849,14.017-4.678,20.55-11.343s10.649.327,10.112,2.732c-4.18,18.709,5.3,26.373-14.812,40.083l1.754.318s-1.256,6.716-.531,10.566c4.08,5.329,10.258,14.547,11.107,22.461C892.065,414.52,898.347,432.5,915.647,428.605Z" transform="translate(-861.114 -311.056)"/></g></g><g transform="translate(85.596)"><path class="m" d="M862.317,338.694c3.536,2.668,8.332,1.541,11.64-3.473s8.643-19.847,19.1-12.7c1.949,1.332,6.856-4.455,4.26,8.429-1.609,7.984.489,16.326,4.436,24.328s3.143,16.646-1.709,32.651,5.95,34.066,27.278,29.917c0,0,4.042-12.471,1.3-17.914-5.47-10.867-7.025-12.644-1.583-21.927s7.843-19.527.267-27.637-6.029-25.181-9.87-34.625-21.164-19.9-33.95-12.11c0,0-7.174-3-13.907,4.428C858.408,320.389,862.317,338.694,862.317,338.694Z" transform="translate(-861.655 -300.914)"/><g class="ak"><path class="al" d="M867.662,349.37c9.313-8.909,13.665-25.577,21.227-24.732s4.228,1.9,10.146.951,8.455,5.918,6.869,16.7c-1.658,11.274,10.991,27.583,1.162,39.314,3.487-11.2-3.8-14.729-3.8-14.729Z" transform="translate(-863.478 -308.105)"/></g></g><path class="am" d="M846.042,378.359c-5.709-2.115-15.149-3-15.854-1.408-2.014,4.553,5.7,10.618,16.107,15.56,0,0-4.714-3.137-3.753-5.837C843.379,384.323,844.5,382.679,846.042,378.359Z" transform="translate(-766.411 -323.745)"/><path class="af" d="M825.684,453.62c8.285,6.816,17.855,37.567,26.962,51.044l-.368,13.815-15.343-.832-8.556-37.618Z" transform="translate(-765.141 -347.263)"/><path class="an" d="M889.786,654.3c-15.036-31.6-38.622-72.069-40.721-76.49-.693-1.458-1.392-2.758-2.092-3.917h0c0-9.786,4.522-17.955,7.371-26.845a264.679,264.679,0,0,0,13.641-38.151c-3.99-.3-9.359.708-16.16,4.908-16.892,10.429-64.53,51.7-48.851,60.179,10.031,6.082,28.313,43.11,44.87,74.323,9.556,18.013,22.235,36.61,22.9,39.716,1.814,8.487-1.3,19.5-23.324,30.86s-57.273,31.143-71.268,40.732-12.44,11.4-13.434,30.333h0c2.7-9.935,8.081-22.207,15.1-26.923,4.237-2.847,10.647-6.642,18.178-10.885,7.841-4.12,17.3-9.491,17.3-9.491l-.016,0c20.219-10.882,42.562-22.287,53.424-27.7,19.64-9.793,20.657-25.23,11.88-41.216-5.536-10.083-21.822-51.087-32.342-78.027,8.623,15.443,23.223,41.721,33.685,63.711,10.014,21.048,16.236,35.138,9.79,43.093-8.862,10.937-26.424,42.8-40.032,68.029,16.768-26.262,40.59-61.671,49.882-73.139C906.021,689.436,899.8,675.345,889.786,654.3Z" transform="translate(-746.03 -364.024)"/><path class="ac" d="M992.482,499.068l10.021-2.662c1.266-.336,2.246,1.011,1.854,2.545L997.7,525.013a5.451,5.451,0,0,1-3.634,4.065L984.1,531.6c-1.259.319-2.226-1.024-1.837-2.55l6.625-25.93A5.47,5.47,0,0,1,992.482,499.068Z" transform="translate(-812.639 -360.233)"/><path class="l" d="M812.6,411.134c-19.08,8.54-21.507,20.826-16.248,43.312,3.288,14.054,14.131,34.073,21.845,48.384,4.628,8.587,5.723,15.783,10.121,16.541,28.246,4.867,57.249-9.274,97.9-20.209a16.711,16.711,0,0,0-3.408-9.93s-45.183,7.444-62.735,9l-19.254,1.7s-11.713-25.212-16.842-43.4S812.6,411.134,812.6,411.134Z" transform="translate(-755.506 -334.367)"/><path class="ai" d="M814.384,408.524c-18.126,5.891-20.447,13.969-20.447,26.538,0,14.247,5.4,30.018,5.4,30.018s9.291,5.027,28.931-3.492c0,0-7.959-34.372-7.748-34.992S814.384,408.524,814.384,408.524Z" transform="translate(-755.506 -333.575)"/><path class="l" d="M973.645,519.758c6.005-3.6,6.667-6.214,9.524-8.807s3.093-.1,1.582,3.7,8.658,3.956,11.337,2.135,2.533-4.7,3.551-5.2,2.7.054,1.657,2.987c0,0,.684-.221,1.042.7s.2,3.951-1.537,6.641-1.556,6.853-3.868,8-13.53.963-19.7-.722S973.645,519.758,973.645,519.758Z" transform="translate(-809.886 -364.34)"/></g><g transform="translate(185.571 0)"><path class="ao" d="M1167.309,631.964,1024.784,684.1a14.578,14.578,0,0,1-19.586-13.691V296.024a31.851,31.851,0,0,1,20.909-29.913l142.525-52.134a14.578,14.578,0,0,1,19.587,13.692V602.051A31.851,31.851,0,0,1,1167.309,631.964Z" transform="translate(-1005.197 -213.078)"/></g><g transform="translate(78.048 37.179)"><g class="ap" transform="translate(118.358 160.62)"><path class="aq" d="M1071.848,583.657,1038.1,595.94c-9.579,3.487-17.344-1.452-17.344-11.032V534.133c0-9.579,7.765-20.171,17.344-23.658l33.75-12.284c9.579-3.487,17.345,1.453,17.345,11.032V560C1089.193,569.579,1081.427,580.17,1071.848,583.657Z" transform="translate(-1020.754 -497.074)"/><path class="ar" d="M1071.817,582.811l-33.194,12.082c-9.421,3.428-17.057-1.428-17.057-10.849V535.39c0-9.421,7.636-19.837,17.057-23.265l33.194-12.082c9.42-3.429,17.057,1.428,17.057,10.849v48.654C1088.874,568.966,1081.237,579.382,1071.817,582.811Z" transform="translate(-1021 -497.641)"/><path class="as" d="M1071.784,581.966l-32.637,11.878c-9.261,3.371-16.769-1.4-16.769-10.666V536.647c0-9.262,7.508-19.5,16.769-22.874l32.637-11.879c9.262-3.371,16.77,1.4,16.77,10.666v46.531C1088.555,568.354,1081.047,578.6,1071.784,581.966Z" transform="translate(-1021.247 -498.209)"/><path class="at" d="M1071.752,581.12l-32.08,11.677c-9.1,3.313-16.483-1.38-16.483-10.483V537.9c0-9.1,7.38-19.169,16.483-22.482l32.08-11.676c9.1-3.313,16.483,1.38,16.483,10.483v44.409C1088.235,567.742,1080.855,577.807,1071.752,581.12Z" transform="translate(-1021.493 -498.776)"/><path class="au" d="M1071.721,580.276,1040.2,591.749c-8.945,3.256-16.2-1.356-16.2-10.3V539.161c0-8.945,7.251-18.835,16.2-22.091l31.524-11.474c8.944-3.255,16.2,1.357,16.2,10.3v42.287C1087.916,567.129,1080.665,577.019,1071.721,580.276Z" transform="translate(-1021.74 -499.344)"/><path class="av" d="M1071.688,579.43,1040.721,590.7c-8.785,3.2-15.908-1.332-15.908-10.118V540.418c0-8.786,7.123-18.5,15.908-21.7l30.967-11.271c8.786-3.2,15.908,1.332,15.908,10.119v40.165C1087.6,566.518,1080.475,576.232,1071.688,579.43Z" transform="translate(-1021.986 -499.911)"/><path class="aw" d="M1071.656,578.585l-30.41,11.068c-8.627,3.14-15.622-1.308-15.622-9.935V541.675c0-8.627,6.994-18.167,15.622-21.308l30.41-11.068c8.627-3.14,15.622,1.308,15.622,9.935v38.043C1087.278,565.906,1080.284,575.444,1071.656,578.585Z" transform="translate(-1022.232 -500.479)"/><path class="ax" d="M1071.625,577.739l-29.854,10.866c-8.469,3.083-15.335-1.284-15.335-9.753V542.932c0-8.468,6.865-17.833,15.335-20.915l29.854-10.866c8.469-3.083,15.334,1.284,15.334,9.753v35.92C1086.959,565.293,1080.094,574.657,1071.625,577.739Z" transform="translate(-1022.479 -501.046)"/><path class="ay" d="M1071.593,576.894l-29.3,10.663c-8.31,3.024-15.047-1.261-15.047-9.57v-33.8c0-8.31,6.737-17.5,15.047-20.523l29.3-10.663c8.311-3.025,15.047,1.26,15.047,9.57v33.8C1086.64,564.681,1079.9,573.87,1071.593,576.894Z" transform="translate(-1022.725 -501.614)"/><path class="az" d="M1071.561,576.049l-28.74,10.461c-8.152,2.967-14.76-1.236-14.76-9.388V545.446c0-8.151,6.608-17.165,14.76-20.132l28.74-10.46c8.151-2.967,14.76,1.236,14.76,9.387v31.675C1086.321,564.069,1079.712,573.082,1071.561,576.049Z" transform="translate(-1022.972 -502.182)"/><path class="ba" d="M1071.529,575.2l-28.184,10.258c-7.993,2.909-14.473-1.212-14.473-9.205V546.7c0-7.993,6.479-16.831,14.473-19.74l28.184-10.258c7.993-2.909,14.472,1.212,14.472,9.2v29.553C1086,563.456,1079.522,572.295,1071.529,575.2Z" transform="translate(-1023.218 -502.749)"/><path class="bb" d="M1071.5,574.358l-27.627,10.055c-7.834,2.852-14.185-1.187-14.185-9.022V547.96c0-7.834,6.351-16.5,14.185-19.348l27.627-10.055c7.834-2.851,14.185,1.188,14.185,9.022V555.01C1085.682,562.844,1079.331,571.507,1071.5,574.358Z" transform="translate(-1023.465 -503.316)"/><path class="bc" d="M1071.465,573.513l-27.069,9.853c-7.676,2.794-13.9-1.164-13.9-8.84V549.217c0-7.675,6.223-16.162,13.9-18.957l27.069-9.852c7.676-2.794,13.9,1.164,13.9,8.84v25.309C1085.363,562.232,1079.141,570.719,1071.465,573.513Z" transform="translate(-1023.711 -503.884)"/><path class="bd" d="M1071.433,572.668l-26.513,9.65c-7.518,2.736-13.611-1.139-13.611-8.657V550.474c0-7.517,6.094-15.829,13.611-18.565l26.513-9.65c7.517-2.737,13.611,1.139,13.611,8.656V554.1C1085.044,561.62,1078.951,569.932,1071.433,572.668Z" transform="translate(-1023.958 -504.452)"/><path class="be" d="M1071.4,571.823l-25.957,9.447c-7.358,2.678-13.324-1.116-13.324-8.475V551.731c0-7.358,5.965-15.495,13.324-18.173l25.957-9.447c7.358-2.679,13.324,1.116,13.324,8.474v21.064C1084.725,561.008,1078.76,569.144,1071.4,571.823Z" transform="translate(-1024.204 -505.019)"/></g><g class="ap" transform="translate(115.786 252.749)"><path class="aq" d="M1159.386,690.157l-130.144,45.609c-6.727,2.448-12.18-1.02-12.18-7.747V692.359c0-6.727,5.453-14.166,12.18-16.614l130.144-45.609c6.727-2.448,12.18,1.02,12.18,7.748v35.659C1171.566,680.27,1166.113,687.708,1159.386,690.157Z" transform="translate(-1017.062 -629.351)"/><path class="ar" d="M1159.148,689.547,1029.8,734.872c-6.6,2.4-11.948-1-11.948-7.6V693.152c0-6.6,5.35-13.9,11.948-16.3l129.348-45.325c6.6-2.4,11.948,1,11.948,7.6V673.25C1171.1,679.849,1165.746,687.146,1159.148,689.547Z" transform="translate(-1017.301 -629.778)"/><path class="as" d="M1158.909,688.938l-128.552,45.041c-6.47,2.355-11.716-.981-11.716-7.452V693.945c0-6.471,5.246-13.625,11.716-15.981l128.552-45.041c6.471-2.355,11.717.981,11.717,7.452v32.582C1170.626,679.429,1165.38,686.583,1158.909,688.938Z" transform="translate(-1017.541 -630.206)"/><path class="at" d="M1158.67,688.329l-127.756,44.757c-6.343,2.308-11.485-.962-11.485-7.3V694.738c0-6.343,5.142-13.356,11.485-15.665l127.756-44.757c6.343-2.309,11.484.962,11.484,7.3v31.044C1170.155,679.008,1165.013,686.021,1158.67,688.329Z" transform="translate(-1017.781 -630.633)"/><path class="au" d="M1158.432,687.72l-126.961,44.473c-6.215,2.261-11.252-.942-11.252-7.157V695.531c0-6.215,5.038-13.086,11.252-15.348l126.961-44.473c6.214-2.262,11.252.942,11.252,7.156v29.506C1169.685,678.587,1164.646,685.458,1158.432,687.72Z" transform="translate(-1018.02 -631.061)"/><path class="av" d="M1158.194,687.111,1032.029,731.3c-6.087,2.216-11.021-.923-11.021-7.009V696.324c0-6.087,4.934-12.817,11.021-15.031L1158.193,637.1c6.087-2.215,11.021.923,11.021,7.009v27.967C1169.214,678.166,1164.28,684.9,1158.194,687.111Z" transform="translate(-1018.26 -631.488)"/><path class="aw" d="M1157.955,686.5l-125.37,43.906c-5.958,2.169-10.788-.9-10.788-6.862V697.116c0-5.958,4.83-12.546,10.788-14.715l125.37-43.906c5.958-2.168,10.789.9,10.789,6.862v26.429C1168.744,677.745,1163.913,684.333,1157.955,686.5Z" transform="translate(-1018.499 -631.916)"/><path class="ax" d="M1157.717,685.892l-124.574,43.621c-5.83,2.122-10.556-.884-10.556-6.714v-24.89c0-5.83,4.726-12.276,10.556-14.4l124.574-43.622c5.83-2.121,10.557.885,10.557,6.714v24.89C1168.273,677.323,1163.547,683.77,1157.717,685.892Z" transform="translate(-1018.739 -632.343)"/><path class="ay" d="M1157.479,685.283,1033.7,728.621c-5.7,2.076-10.324-.865-10.324-6.566V698.7c0-5.7,4.622-12.007,10.324-14.082l123.779-43.337c5.7-2.076,10.324.864,10.324,6.566V671.2C1167.8,676.9,1163.18,683.208,1157.479,685.283Z" transform="translate(-1018.979 -632.771)"/><path class="az" d="M1157.24,684.674l-122.982,43.054c-5.574,2.029-10.092-.846-10.092-6.419V699.5c0-5.574,4.518-11.737,10.092-13.765l122.982-43.054c5.574-2.029,10.093.845,10.093,6.419v21.813C1167.332,676.482,1162.814,682.645,1157.24,684.674Z" transform="translate(-1019.218 -633.198)"/><path class="ba" d="M1157,684.065l-122.187,42.77c-5.446,1.982-9.86-.826-9.86-6.272V700.289c0-5.446,4.414-11.467,9.86-13.449L1157,644.07c5.446-1.982,9.86.825,9.86,6.271v20.275C1166.861,676.061,1162.447,682.083,1157,684.065Z" transform="translate(-1019.457 -633.625)"/><path class="bb" d="M1156.763,683.455l-121.392,42.486c-5.317,1.935-9.628-.807-9.628-6.124V701.082c0-5.318,4.311-11.2,9.628-13.133l121.392-42.485c5.318-1.936,9.628.806,9.628,6.123v18.736C1166.391,675.64,1162.081,681.52,1156.763,683.455Z" transform="translate(-1019.697 -634.053)"/><path class="bc" d="M1156.525,682.846l-120.6,42.2c-5.189,1.889-9.4-.787-9.4-5.977v-17.2c0-5.189,4.207-10.927,9.4-12.816l120.6-42.2c5.189-1.888,9.4.787,9.4,5.977v17.2C1165.921,675.219,1161.714,680.957,1156.525,682.846Z" transform="translate(-1019.937 -634.48)"/><path class="bd" d="M1156.286,682.237l-119.8,41.919c-5.061,1.842-9.164-.768-9.164-5.829V702.667c0-5.061,4.1-10.657,9.164-12.5l119.8-41.919c5.062-1.842,9.165.767,9.165,5.829v15.659C1165.45,674.8,1161.347,680.394,1156.286,682.237Z" transform="translate(-1020.176 -634.908)"/><path class="be" d="M1156.048,681.628l-119,41.634c-4.933,1.8-8.932-.748-8.932-5.681V703.46c0-4.933,4-10.387,8.932-12.183l119-41.635c4.933-1.8,8.932.748,8.932,5.681v14.12C1164.98,674.377,1160.981,679.832,1156.048,681.628Z" transform="translate(-1020.416 -635.335)"/></g><g transform="translate(0 228.117)"><path class="bf" d="M894.736,650.305,864.142,661.44c-7.358,2.679-13.324-1.115-13.324-8.474V624.153c0-7.358,5.965-15.5,13.324-18.173l30.594-11.135c7.358-2.678,13.324,1.116,13.324,8.475v28.814C908.06,639.491,902.094,647.627,894.736,650.305Z" transform="translate(-850.818 -593.985)"/><path class="bg" d="M913.858,644.409h0c-3.729,1.358-6.752,5.948-6.752,10.254h0c0,4.306,3.023,6.7,6.752,5.339h0c3.728-1.357,6.751-5.948,6.751-10.254h0C920.609,645.443,917.586,643.053,913.858,644.409Z" transform="translate(-867.902 -609.174)"/><path class="s" d="M914.745,659.311a.363.363,0,0,1-.329-.024.6.6,0,0,1-.045-.8l2.253-3.775-2.235-1.817a.639.639,0,0,1,.007-.817c.2-.294.513-.405.705-.249l2.559,2.081a.621.621,0,0,1,.018.777l-2.559,4.288A.763.763,0,0,1,914.745,659.311Z" transform="translate(-870.07 -611.521)"/><g transform="translate(5.795 19.602)"><path class="bg" d="M864.755,635.035c0,1.222-.84,2.236-2.45,2.821l-3.167,1.153v-7.072l2.992-1.089c1.531-.557,2.319-.107,2.319.995a2.6,2.6,0,0,1-.814,1.852C864.318,633.7,864.755,634.146,864.755,635.035Zm-4.209-2.378v1.667l1.409-.513c.691-.251,1.068-.672,1.068-1.227s-.377-.692-1.068-.44Zm2.782,2.725c0-.6-.393-.735-1.129-.468l-1.654.6v1.748l1.654-.6C862.935,636.395,863.329,635.989,863.329,635.382Z" transform="translate(-859.138 -624.703)"/><path class="bg" d="M872.675,631.8v3.1l-1.277.465v-.677a2.374,2.374,0,0,1-1.435,1.28c-1.1.4-1.759-.068-1.759-1.007,0-.959.586-1.839,2.021-2.362l1.085-.4c0-.677-.35-.944-1.085-.676a3.212,3.212,0,0,0-1.356,1l-.49-.923a4.983,4.983,0,0,1,2.03-1.4C871.844,629.686,872.675,630.152,872.675,631.8Zm-1.365,1.881v-.556l-.936.341c-.639.233-.84.579-.84.942,0,.394.288.552.77.376A1.635,1.635,0,0,0,871.31,633.68Z" transform="translate(-861.89 -624.52)"/><path class="bg" d="M875.7,633.258l.456-1.3a2.518,2.518,0,0,0,1.636-.07c.63-.229.866-.507.866-.81,0-.889-2.844,1.055-2.844-1.117A2.934,2.934,0,0,1,878,627.413a3.165,3.165,0,0,1,1.811-.185l-.455,1.287a2.167,2.167,0,0,0-1.356.09c-.613.223-.875.54-.875.824,0,.929,2.843-1,2.843,1.137a2.958,2.958,0,0,1-2.222,2.537A3.22,3.22,0,0,1,875.7,633.258Z" transform="translate(-864.166 -623.656)"/><path class="bg" d="M882.744,623.379a1.307,1.307,0,0,1,.849-1.187c.508-.185.848.054.848.539a1.317,1.317,0,0,1-.848,1.219A.57.57,0,0,1,882.744,623.379Zm.166,1.576,1.365-.5v5.435l-1.365.5Z" transform="translate(-866.303 -622.129)"/><path class="bg" d="M886.12,627.237a4.085,4.085,0,0,1,2.625-3.754c.988-.36,1.768-.148,2.108.617l-1.058,1.042a.8.8,0,0,0-1.059-.363,2.033,2.033,0,0,0-1.234,1.955c0,.949.542,1.307,1.234,1.056a1.875,1.875,0,0,0,1.059-1.133l1.058.281a3.491,3.491,0,0,1-2.108,2.141A1.783,1.783,0,0,1,886.12,627.237Z" transform="translate(-867.327 -622.488)"/></g><path class="bh" d="M905.274,632.316l-46.618,16.9v-5.726l46.618-16.9Z" transform="translate(-853.197 -603.881)"/></g><g transform="translate(68.177 203.303)"><path class="bf" d="M992.623,614.678l-30.594,11.135c-7.358,2.678-13.324-1.116-13.324-8.475V588.525c0-7.358,5.965-15.5,13.324-18.173l30.594-11.135c7.358-2.678,13.324,1.116,13.324,8.475V596.5C1005.946,603.863,999.981,612,992.623,614.678Z" transform="translate(-948.705 -558.357)"/><path class="bg" d="M1011.744,608.782h0c-3.728,1.357-6.751,5.947-6.751,10.254h0c0,4.306,3.023,6.7,6.751,5.339h0c3.729-1.357,6.752-5.948,6.752-10.254h0C1018.5,609.815,1015.473,607.425,1011.744,608.782Z" transform="translate(-965.789 -573.547)"/><path class="s" d="M1012.632,623.684a.364.364,0,0,1-.329-.024.6.6,0,0,1-.045-.8l2.253-3.775-2.235-1.817a.639.639,0,0,1,.007-.817c.2-.294.513-.405.706-.249l2.559,2.082a.622.622,0,0,1,.018.777l-2.559,4.288A.761.761,0,0,1,1012.632,623.684Z" transform="translate(-967.957 -575.893)"/><g transform="translate(5.794 19.812)"><path class="bg" d="M962.335,597a3.78,3.78,0,0,1-2.66,3.524l-1.234.449v1.949l-1.417.516V596.37l2.652-.965C961.311,594.81,962.335,595.416,962.335,597Zm-1.435.522c0-.778-.437-1.073-1.3-.759l-1.156.421v2.455l1.156-.421A1.76,1.76,0,0,0,960.9,597.525Z" transform="translate(-957.024 -589.346)"/><path class="bg" d="M968.766,594.385v1.455c-.114.031-.2.053-.306.091a1.924,1.924,0,0,0-1.252,1.97v2.567l-1.365.5V595.53l1.3-.475v.717A2.876,2.876,0,0,1,968.766,594.385Z" transform="translate(-959.701 -589.104)"/><path class="bg" d="M970.613,596.488a4.075,4.075,0,0,1,2.59-3.742c1.5-.545,2.581.223,2.581,1.86a4.062,4.062,0,0,1-2.581,3.738A1.776,1.776,0,0,1,970.613,596.488Zm3.789-1.379c0-.94-.516-1.318-1.2-1.069A2.019,2.019,0,0,0,972,595.985c0,.94.525,1.314,1.207,1.066A2.007,2.007,0,0,0,974.4,595.109Z" transform="translate(-961.148 -588.554)"/><path class="bg" d="M980.573,589.388l1.207-.439v1.212l-1.172.426v4.1l-1.364.5v-4.1l-.727.265v-1.212l.727-.265v-.243a2.737,2.737,0,0,1,1.819-2.682,1.555,1.555,0,0,1,1.041-.086l-.359,1.272a.729.729,0,0,0-.551.008.962.962,0,0,0-.621,1.015Z" transform="translate(-963.547 -586.803)"/></g><path class="bh" d="M995.585,600.3l-38.561,14.035v-5.725l38.561-14.035Z" transform="translate(-951.23 -569.349)"/></g><g transform="translate(134.672 179.1)"><path class="bf" d="M1088.095,579.929,1057.5,591.064c-7.358,2.678-13.324-1.116-13.324-8.475V553.776c0-7.358,5.965-15.5,13.324-18.173l30.594-11.135c7.358-2.678,13.324,1.116,13.324,8.475v28.814C1101.418,569.114,1095.453,577.251,1088.095,579.929Z" transform="translate(-1044.177 -523.608)"/><path class="bg" d="M1107.217,574.032h0c-3.729,1.358-6.752,5.948-6.752,10.254h0c0,4.306,3.022,6.7,6.752,5.339h0c3.729-1.357,6.752-5.948,6.752-10.254h0C1113.969,575.066,1110.946,572.676,1107.217,574.032Z" transform="translate(-1061.261 -538.797)"/><path class="s" d="M1108.1,588.935a.362.362,0,0,1-.329-.024.6.6,0,0,1-.045-.8l2.253-3.775-2.235-1.817a.639.639,0,0,1,.007-.817c.2-.294.513-.405.706-.249l2.559,2.081a.621.621,0,0,1,.018.777l-2.559,4.288A.761.761,0,0,1,1108.1,588.935Z" transform="translate(-1063.428 -541.144)"/><g transform="translate(5.795 14.413)"><path class="bg" d="M1058.114,564.658c0,1.222-.84,2.236-2.45,2.821l-3.167,1.153V561.56l2.992-1.089c1.532-.557,2.319-.107,2.319.995a2.6,2.6,0,0,1-.813,1.852C1057.677,563.322,1058.114,563.769,1058.114,564.658Zm-4.208-2.378v1.667l1.408-.513c.691-.251,1.068-.672,1.068-1.227s-.377-.692-1.068-.44Zm2.782,2.725c0-.6-.394-.735-1.129-.468l-1.653.6v1.748l1.653-.6C1056.294,566.018,1056.688,565.612,1056.688,565Z" transform="translate(-1052.497 -549.137)"/><path class="bg" d="M1066.649,558.582v5.435l-1.3.472v-.647a2.883,2.883,0,0,1-1.461,1.259c-1.181.43-2.012-.036-2.012-1.712v-3.071l1.365-.5v2.838c0,.91.35,1.186.953.967a1.813,1.813,0,0,0,1.085-1.86v-2.687Z" transform="translate(-1055.345 -548.637)"/><path class="bg" d="M1069.885,562.582l.455-1.3a2.515,2.515,0,0,0,1.637-.07c.63-.229.867-.507.867-.81,0-.889-2.844,1.055-2.844-1.117a2.934,2.934,0,0,1,2.178-2.55,3.154,3.154,0,0,1,1.812-.185l-.455,1.287a2.164,2.164,0,0,0-1.357.089c-.612.223-.875.541-.875.824,0,.93,2.844-1,2.844,1.137a2.959,2.959,0,0,1-2.223,2.537A3.219,3.219,0,0,1,1069.885,562.582Z" transform="translate(-1057.775 -548)"/><path class="bg" d="M1076.926,552.7a1.307,1.307,0,0,1,.849-1.188c.507-.185.849.055.849.54a1.317,1.317,0,0,1-.849,1.218A.57.57,0,0,1,1076.926,552.7Zm.166,1.576,1.365-.5v5.435l-1.365.5Z" transform="translate(-1059.912 -546.473)"/><path class="bg" d="M1085.62,554.206v3.112l-1.365.5v-2.869c0-.879-.35-1.156-.954-.936a1.836,1.836,0,0,0-1.129,1.876v2.688l-1.365.5v-5.435l1.3-.475v.637a3.067,3.067,0,0,1,1.558-1.284C1084.78,552.107,1085.62,552.549,1085.62,554.206Z" transform="translate(-1061.09 -546.752)"/><path class="bg" d="M1093.813,552.109l-3.561,1.3c.131.63.63.862,1.348.6a2.353,2.353,0,0,0,1.181-.956l.726.645a3.656,3.656,0,0,1-1.943,1.586c-1.628.593-2.686-.2-2.686-1.821a4.045,4.045,0,0,1,2.511-3.713c1.383-.5,2.45.18,2.45,1.928C1093.839,551.8,1093.822,551.974,1093.813,552.109Zm-3.578.384,2.319-.844a.8.8,0,0,0-1.155-.712A1.874,1.874,0,0,0,1090.235,552.492Z" transform="translate(-1063.539 -545.906)"/><path class="bg" d="M1096.648,552.841l.455-1.3a2.52,2.52,0,0,0,1.637-.07c.63-.229.866-.507.866-.81,0-.889-2.843,1.055-2.843-1.118a2.934,2.934,0,0,1,2.178-2.55,3.166,3.166,0,0,1,1.812-.185l-.455,1.287a2.158,2.158,0,0,0-1.356.09c-.612.223-.875.54-.875.823,0,.93,2.844-1,2.844,1.137a2.958,2.958,0,0,1-2.223,2.536A3.22,3.22,0,0,1,1096.648,552.841Z" transform="translate(-1065.898 -545.044)"/><path class="bg" d="M1103.355,550.4l.455-1.3a2.513,2.513,0,0,0,1.636-.07c.63-.229.866-.507.866-.81,0-.889-2.844,1.055-2.844-1.117a2.934,2.934,0,0,1,2.179-2.55,3.154,3.154,0,0,1,1.811-.185l-.455,1.287a2.162,2.162,0,0,0-1.356.089c-.613.223-.875.541-.875.824,0,.93,2.844-1,2.844,1.137a2.959,2.959,0,0,1-2.222,2.537A3.22,3.22,0,0,1,1103.355,550.4Z" transform="translate(-1067.933 -544.303)"/></g><path class="bh" d="M1097.681,563.6l-44.835,16.165v-5.725l44.835-16.165Z" transform="translate(-1046.808 -534.009)"/></g><g transform="translate(164.639 59.788)"><ellipse class="bg" cx="42.81" cy="29.689" rx="42.81" ry="29.689" transform="translate(0 75.108) rotate(-61.31)"/><path class="s" d="M1160.027,403.1c0,7.028-4.7,15.361-10.5,17.471s-10.495-2.8-10.495-9.832,4.7-14.435,10.495-16.544S1160.027,396.071,1160.027,403.1Z" transform="translate(-1102.936 -364.845)"/><path class="s" d="M1165.792,439.329c0,5.192-9.274,15.966-20.713,20.13s-20.712.139-20.712-5.052,9.273-12.776,20.712-16.939S1165.792,434.137,1165.792,439.329Z" transform="translate(-1098.484 -377.347)"/></g><g transform="translate(123.003 50.957)"><path class="bg" d="M1037.739,347.29l-9.47,3.446c-.34.124-.616-.094-.616-.487a1.05,1.05,0,0,1,.616-.936l9.47-3.447c.34-.123.616.095.616.488A1.05,1.05,0,0,1,1037.739,347.29Z" transform="translate(-1027.493 -341.507)"/><path class="bg" d="M1037.51,341.08l-9.47,3.447c-.34.124-.616-.095-.616-.487a1.048,1.048,0,0,1,.616-.935l9.47-3.447c.34-.124.616.094.616.487A1.049,1.049,0,0,1,1037.51,341.08Z" transform="translate(-1027.423 -339.622)"/><path class="bg" d="M1033.692,355.341l-5.423,1.973c-.34.124-.616-.094-.616-.487a1.05,1.05,0,0,1,.616-.936l5.423-1.974c.34-.123.616.095.616.487A1.05,1.05,0,0,1,1033.692,355.341Z" transform="translate(-1027.493 -343.95)"/></g><g transform="translate(129.128 328.841)"><path class="bg" d="M1202.465,759.5l-43.721,15.913c-5.591,2.035-10.123-.848-10.123-6.438h0c0-5.591,4.532-11.772,10.123-13.807l43.721-15.913c5.591-2.034,10.122.848,10.122,6.438h0C1212.587,751.285,1208.055,757.466,1202.465,759.5Z" transform="translate(-1070.333 -738.603)"/><g transform="translate(93.959 10.077)"><path class="s" d="M1173.114,771.5l1.6-.582v2.521a6.275,6.275,0,0,1-.754.483,5.96,5.96,0,0,1-.781.346,1.428,1.428,0,0,1-1.523-.121,2.228,2.228,0,0,1-.535-1.71,3.723,3.723,0,0,1,.6-2.117,3.3,3.3,0,0,1,1.663-1.291,2.725,2.725,0,0,1,1.291-.168l-.25.775a2.061,2.061,0,0,0-1.06.1,2.122,2.122,0,0,0-1.1.905,2.843,2.843,0,0,0-.4,1.529,1.73,1.73,0,0,0,.364,1.267.958.958,0,0,0,1.049.1,4.034,4.034,0,0,0,.737-.368v-1.295l-.9.328Z" transform="translate(-1171.121 -757.859)"/><path class="s" d="M1179.023,772.835a1.165,1.165,0,0,1-1.2-.08,1.572,1.572,0,0,1-.433-1.266,3.1,3.1,0,0,1,.4-1.609,2.081,2.081,0,0,1,1.1-.934.987.987,0,0,1,1.03.082,1.4,1.4,0,0,1,.378,1.119v.437l-2.193.8a1,1,0,0,0,.259.756.66.66,0,0,0,.687.047,2.9,2.9,0,0,0,.543-.261,4.136,4.136,0,0,0,.54-.407v.656a3.051,3.051,0,0,1-.518.387A3.6,3.6,0,0,1,1179.023,772.835Zm-.128-3.279a1.044,1.044,0,0,0-.533.439,1.73,1.73,0,0,0-.24.8l1.493-.544a.865.865,0,0,0-.2-.641A.485.485,0,0,0,1178.9,769.556Z" transform="translate(-1173.024 -757.859)"/><path class="s" d="M1183.77,770.216a2.1,2.1,0,0,0,.512-.279v.608a2.014,2.014,0,0,1-.3.207,2.422,2.422,0,0,1-.38.178q-.993.361-.993-.848v-2.047l-.449.163v-.357l.482-.471.237-.89.432-.157v.845l.937-.341v.611l-.937.341v2.033a.461.461,0,0,0,.126.385A.34.34,0,0,0,1183.77,770.216Z" transform="translate(-1174.472 -757.094)"/><path class="s" d="M1190.541,767.507a1.5,1.5,0,0,1-.351.981,2.28,2.28,0,0,1-1,.663,2.011,2.011,0,0,1-1.056.154v-.7a2.089,2.089,0,0,0,1.08-.084q.645-.235.646-.685a.287.287,0,0,0-.072-.215.532.532,0,0,0-.235-.113,2.756,2.756,0,0,0-.455-.068,1.356,1.356,0,0,1-.769-.228.755.755,0,0,1-.2-.586,1.314,1.314,0,0,1,.341-.881,2.414,2.414,0,0,1,2.024-.736l-.226.691a1.969,1.969,0,0,0-.9.072q-.553.2-.553.565a.256.256,0,0,0,.144.25,2.15,2.15,0,0,0,.629.111,1.887,1.887,0,0,1,.592.118.561.561,0,0,1,.274.249A.922.922,0,0,1,1190.541,767.507Z" transform="translate(-1176.281 -756.689)"/><path class="s" d="M1193.739,766.587a2.076,2.076,0,0,0,.511-.279v.608a2,2,0,0,1-.3.207,2.358,2.358,0,0,1-.379.177q-.994.363-.994-.847v-2.048l-.449.164v-.357l.482-.471.238-.89.431-.157v.846l.937-.341v.612l-.937.341v2.033a.46.46,0,0,0,.126.385A.339.339,0,0,0,1193.739,766.587Z" transform="translate(-1177.497 -755.992)"/><path class="s" d="M1198.076,765.819l-.14-.478-.024.008a2.411,2.411,0,0,1-.479.647,1.911,1.911,0,0,1-.618.35.78.78,0,0,1-.757-.026.893.893,0,0,1-.272-.756,1.517,1.517,0,0,1,.378-1.024,2.939,2.939,0,0,1,1.151-.745l.569-.228v-.2a.633.633,0,0,0-.147-.49.445.445,0,0,0-.457-.015,1.938,1.938,0,0,0-.485.263,5.589,5.589,0,0,0-.446.365l-.226-.495a3.59,3.59,0,0,1,.586-.459,3.2,3.2,0,0,1,.6-.3,1.1,1.1,0,0,1,.947-.029q.319.2.32.876v2.559Zm-1.041-.171a1.256,1.256,0,0,0,.611-.468,1.316,1.316,0,0,0,.231-.772v-.33l-.423.175a1.919,1.919,0,0,0-.718.452.871.871,0,0,0-.225.6.4.4,0,0,0,.131.346A.431.431,0,0,0,1197.035,765.649Z" transform="translate(-1178.607 -755.815)"/><path class="s" d="M1202.861,760.2a1.585,1.585,0,0,1,.348-.093l-.069.777a1.237,1.237,0,0,0-.309.072,1.336,1.336,0,0,0-.68.563,1.674,1.674,0,0,0-.26.915v1.986l-.7.254v-3.8l.547-.2.092.636.036-.013a2.382,2.382,0,0,1,.426-.694A1.424,1.424,0,0,1,1202.861,760.2Z" transform="translate(-1180.248 -755.207)"/><path class="s" d="M1206.022,762.117a2.1,2.1,0,0,0,.512-.279v.608a1.936,1.936,0,0,1-.3.207,2.434,2.434,0,0,1-.379.178q-.994.361-.994-.848v-2.047l-.449.163v-.357l.482-.471.238-.891.431-.157v.845l.938-.341v.612l-.937.341v2.034a.458.458,0,0,0,.127.384A.339.339,0,0,0,1206.022,762.117Z" transform="translate(-1181.226 -754.636)"/><path class="s" d="M1209.753,761.65a1.166,1.166,0,0,1-1.2-.08,1.573,1.573,0,0,1-.432-1.266,3.107,3.107,0,0,1,.4-1.609,2.088,2.088,0,0,1,1.1-.934.987.987,0,0,1,1.029.082,1.4,1.4,0,0,1,.378,1.12v.436l-2.193.8a.994.994,0,0,0,.259.756.66.66,0,0,0,.687.047,3,3,0,0,0,.543-.261,4.153,4.153,0,0,0,.54-.408v.656a3.123,3.123,0,0,1-.517.388A3.63,3.63,0,0,1,1209.753,761.65Zm-.127-3.278a1.039,1.039,0,0,0-.534.438,1.737,1.737,0,0,0-.24.8l1.493-.543a.867.867,0,0,0-.2-.642A.485.485,0,0,0,1209.625,758.372Z" transform="translate(-1182.351 -754.464)"/><path class="s" d="M1214.465,759.1a.807.807,0,0,1-.961-.166,1.987,1.987,0,0,1-.346-1.32,3.291,3.291,0,0,1,.35-1.582,1.78,1.78,0,0,1,.968-.873.794.794,0,0,1,.988.194l.036-.013a5.122,5.122,0,0,1-.05-.628v-1.384l.7-.256v5.345l-.547.2-.122-.454-.033.012A1.745,1.745,0,0,1,1214.465,759.1Zm.187-.721a1.127,1.127,0,0,0,.627-.508,2.071,2.071,0,0,0,.2-.982v-.114a1.52,1.52,0,0,0-.2-.947c-.134-.152-.346-.176-.633-.072a1.015,1.015,0,0,0-.568.552,2.447,2.447,0,0,0-.2,1.057,1.55,1.55,0,0,0,.193.893A.458.458,0,0,0,1214.652,758.379Z" transform="translate(-1183.88 -753.072)"/></g><path class="s" d="M1090.061,800.341l-43.721,15.913c-5.591,2.035-10.123-.848-10.123-6.438h0c0-5.591,4.532-11.772,10.123-13.807l43.721-15.913c5.591-2.035,10.123.848,10.123,6.438h0C1100.184,792.125,1095.652,798.307,1090.061,800.341Z" transform="translate(-1036.217 -750.999)"/><g transform="translate(27.509 41.916)"><path class="bg" d="M1078.5,807.362a1.9,1.9,0,0,1-.419,1.2,2.523,2.523,0,0,1-1.157.8,2.323,2.323,0,0,1-1.208.175v-.777a2.361,2.361,0,0,0,.632.024,2.417,2.417,0,0,0,.623-.134,1.346,1.346,0,0,0,.623-.412.91.91,0,0,0,.2-.571.465.465,0,0,0-.185-.41,1.812,1.812,0,0,0-.761-.186,1.28,1.28,0,0,1-.839-.331,1.1,1.1,0,0,1-.245-.77,1.8,1.8,0,0,1,.387-1.13,2.249,2.249,0,0,1,1.038-.738,2.517,2.517,0,0,1,1.243-.137l-.226.752a2.215,2.215,0,0,0-1.035.1,1.1,1.1,0,0,0-.524.364.854.854,0,0,0-.178.524.577.577,0,0,0,.071.309.467.467,0,0,0,.235.178,2.679,2.679,0,0,0,.589.112,2.1,2.1,0,0,1,.7.173.738.738,0,0,1,.327.331A1.261,1.261,0,0,1,1078.5,807.362Z" transform="translate(-1075.714 -800.352)"/><path class="bg" d="M1083.708,806.914l-.7.256v-2.335a.88.88,0,0,0-.153-.6q-.153-.161-.486-.04a1.158,1.158,0,0,0-.647.54,2.325,2.325,0,0,0-.207,1.093v1.886l-.7.254v-5.345l.7-.254v1.357q0,.326-.036.71l.045-.017a1.743,1.743,0,0,1,.4-.57,1.668,1.668,0,0,1,.593-.367q1.2-.435,1.2.956Z" transform="translate(-1077.262 -799.873)"/><path class="bg" d="M1088.323,805.694l-.14-.478-.024.009a2.406,2.406,0,0,1-.479.646,1.9,1.9,0,0,1-.618.35.78.78,0,0,1-.757-.026.894.894,0,0,1-.272-.756,1.516,1.516,0,0,1,.378-1.024,2.937,2.937,0,0,1,1.151-.745l.568-.227v-.2a.635.635,0,0,0-.147-.491.448.448,0,0,0-.457-.014,1.938,1.938,0,0,0-.485.262,5.566,5.566,0,0,0-.446.365l-.226-.495a3.566,3.566,0,0,1,.586-.459,3.205,3.205,0,0,1,.6-.3,1.1,1.1,0,0,1,.947-.029q.32.2.32.876v2.559Zm-1.041-.171a1.244,1.244,0,0,0,.611-.468,1.316,1.316,0,0,0,.231-.772v-.329l-.423.174a1.929,1.929,0,0,0-.718.452.875.875,0,0,0-.225.6.4.4,0,0,0,.131.345A.428.428,0,0,0,1087.282,805.524Z" transform="translate(-1078.846 -799.757)"/><path class="bg" d="M1093.108,800.075a1.555,1.555,0,0,1,.348-.092l-.068.777a1.223,1.223,0,0,0-.309.072,1.328,1.328,0,0,0-.68.563,1.668,1.668,0,0,0-.26.916V804.3l-.7.254v-3.8l.547-.2.093.636.036-.013a2.377,2.377,0,0,1,.427-.7A1.422,1.422,0,0,1,1093.108,800.075Z" transform="translate(-1080.487 -799.149)"/><path class="bg" d="M1096.562,802.777a1.165,1.165,0,0,1-1.2-.08,1.573,1.573,0,0,1-.432-1.266,3.106,3.106,0,0,1,.4-1.61,2.082,2.082,0,0,1,1.1-.934.987.987,0,0,1,1.029.082,1.4,1.4,0,0,1,.378,1.119v.437l-2.193.8a1,1,0,0,0,.259.756.659.659,0,0,0,.687.047,2.893,2.893,0,0,0,.543-.261,4.123,4.123,0,0,0,.54-.407v.656a3.112,3.112,0,0,1-.518.387A3.715,3.715,0,0,1,1096.562,802.777Zm-.127-3.279a1.045,1.045,0,0,0-.534.439,1.731,1.731,0,0,0-.239.8l1.493-.544a.866.866,0,0,0-.2-.641A.484.484,0,0,0,1096.434,799.5Z" transform="translate(-1081.546 -798.786)"/></g><g transform="translate(19.002 47.921)"><g transform="translate(0 0.613)"><path class="bg" d="M1067.078,812.913l-3.577-.878,3.56-3.747.391.613-2.4,2.521,2.378.584Z" transform="translate(-1063.5 -808.288)"/></g><g transform="translate(2.996)"><path class="bg" d="M1069.319,808.051a1.292,1.292,0,0,1-.759,1.153c-.42.153-.759-.116-.759-.6a1.291,1.291,0,0,1,.759-1.153C1068.98,807.3,1069.319,807.567,1069.319,808.051Z" transform="translate(-1067.801 -807.408)"/></g><g transform="translate(0.018 3.134)"><path class="bg" d="M1065.045,812.551a1.292,1.292,0,0,1-.759,1.153c-.419.152-.759-.116-.759-.6a1.292,1.292,0,0,1,.759-1.153C1064.7,811.8,1065.045,812.067,1065.045,812.551Z" transform="translate(-1063.526 -811.908)"/></g><g transform="translate(2.996 3.865)"><path class="bg" d="M1069.319,813.6a1.292,1.292,0,0,1-.759,1.153c-.42.152-.759-.116-.759-.6a1.291,1.291,0,0,1,.759-1.153C1068.98,812.847,1069.319,813.116,1069.319,813.6Z" transform="translate(-1067.801 -812.957)"/></g></g><g transform="translate(65.033 5.202)"><path class="bg" d="M1132.186,753.421c0-.828-.581-1.287-1.3-1.027a2.209,2.209,0,0,0-1.3,1.971c0,.827.581,1.287,1.3,1.026A2.208,2.208,0,0,0,1132.186,753.421Z" transform="translate(-1129.59 -747.969)"/><path class="s" d="M1140.642,750.343c0-.828-.581-1.287-1.3-1.027a2.209,2.209,0,0,0-1.3,1.971c0,.827.581,1.287,1.3,1.026A2.207,2.207,0,0,0,1140.642,750.343Z" transform="translate(-1132.157 -747.035)"/><path class="s" d="M1149.353,747.172c0-.827-.581-1.287-1.3-1.026a2.208,2.208,0,0,0-1.3,1.971c0,.827.581,1.286,1.3,1.026A2.208,2.208,0,0,0,1149.353,747.172Z" transform="translate(-1134.801 -746.073)"/></g><path class="s" d="M1155.17,812.111,1103.9,830.774a1.4,1.4,0,0,0-.821,1.247h0c0,.524.368.814.821.649l51.275-18.662a1.4,1.4,0,0,0,.821-1.247h0C1155.992,812.237,1155.624,811.946,1155.17,812.111Z" transform="translate(-1056.509 -760.9)"/></g><g transform="translate(177.161 21.118)"><path class="bg" d="M1113.026,316.02a5.581,5.581,0,0,1-3.928,5.2l-1.821.663v2.88l-2.094.762V315.085l3.915-1.425C1111.514,312.781,1113.026,313.678,1113.026,316.02Zm-2.12.772c0-1.149-.646-1.585-1.925-1.12l-1.7.621v3.625l1.7-.621A2.6,2.6,0,0,0,1110.907,316.792Z" transform="translate(-1105.183 -301.803)"/><path class="bg" d="M1122.5,312.161v2.149c-.168.047-.3.078-.453.135a2.84,2.84,0,0,0-1.847,2.911v3.79l-2.016.734v-8.027l1.925-.7v1.059A4.25,4.25,0,0,1,1122.5,312.161Z" transform="translate(-1109.129 -301.448)"/><path class="bg" d="M1125.206,315.276a6.017,6.017,0,0,1,3.825-5.526c2.209-.8,3.812.329,3.812,2.746a6,6,0,0,1-3.812,5.52C1126.82,318.822,1125.206,317.694,1125.206,315.276Zm5.6-2.036c0-1.387-.762-1.946-1.771-1.579a2.981,2.981,0,0,0-1.783,2.872c0,1.387.775,1.942,1.783,1.574A2.963,2.963,0,0,0,1130.8,313.24Z" transform="translate(-1111.26 -300.639)"/><path class="bg" d="M1139.952,303.594v.343l1.783-.648v1.79l-1.731.63v6.058l-2.016.733v-6.058l-1.073.391v-1.791l1.073-.39v-.359a4.042,4.042,0,0,1,2.688-3.962,2.292,2.292,0,0,1,1.538-.127l-.53,1.879a1.081,1.081,0,0,0-.813.013A1.42,1.42,0,0,0,1139.952,303.594Zm3.58-3.556a1.932,1.932,0,0,1,1.254-1.754c.75-.272,1.253.081,1.253.8a1.945,1.945,0,0,1-1.253,1.8A.842.842,0,0,1,1143.531,300.038Zm.246,2.328,2.015-.733v8.028l-2.015.733Z" transform="translate(-1114.814 -297.209)"/><path class="bg" d="M1152.211,297.513l2.015-.733v11.071l-2.015.734Z" transform="translate(-1119.457 -296.78)"/><path class="bg" d="M1164.189,301.77l-5.259,1.915c.194.929.93,1.272,1.99.887a3.485,3.485,0,0,0,1.745-1.41l1.073.952a5.408,5.408,0,0,1-2.869,2.342c-2.4.876-3.967-.3-3.967-2.689a5.972,5.972,0,0,1,3.71-5.483c2.041-.743,3.617.265,3.617,2.847C1164.228,301.308,1164.2,301.571,1164.189,301.77Zm-5.285.566,3.425-1.246a1.173,1.173,0,0,0-1.706-1.05A2.764,2.764,0,0,0,1158.9,302.336Z" transform="translate(-1120.88 -297.164)"/></g><g class="ap" transform="translate(115.786 203.834)"><path class="aq" d="M1159.386,619.925l-130.144,45.609c-6.727,2.448-12.18-1.02-12.18-7.747V622.127c0-6.727,5.453-14.166,12.18-16.614L1159.386,559.9c6.727-2.449,12.18,1.02,12.18,7.747v35.659C1171.566,610.038,1166.113,617.476,1159.386,619.925Z" transform="translate(-1017.062 -559.119)"/><path class="ar" d="M1159.148,619.315,1029.8,664.641c-6.6,2.4-11.948-1-11.948-7.6V622.92c0-6.6,5.35-13.9,11.948-16.3L1159.148,561.3c6.6-2.4,11.948,1,11.948,7.6v34.121C1171.1,609.617,1165.746,616.914,1159.148,619.315Z" transform="translate(-1017.301 -559.547)"/><path class="as" d="M1158.909,618.706l-128.552,45.041c-6.47,2.355-11.716-.981-11.716-7.452V623.713c0-6.471,5.246-13.625,11.716-15.981l128.552-45.041c6.471-2.355,11.717.981,11.717,7.452v32.582C1170.626,609.2,1165.38,616.351,1158.909,618.706Z" transform="translate(-1017.541 -559.974)"/><path class="at" d="M1158.67,618.1l-127.756,44.757c-6.343,2.308-11.485-.962-11.485-7.3V624.506c0-6.343,5.142-13.356,11.485-15.665l127.756-44.757c6.343-2.309,11.484.962,11.484,7.3v31.044C1170.155,608.776,1165.013,615.789,1158.67,618.1Z" transform="translate(-1017.781 -560.402)"/><path class="au" d="M1158.432,617.488l-126.961,44.473c-6.215,2.261-11.252-.942-11.252-7.157V625.3c0-6.215,5.038-13.086,11.252-15.348l126.961-44.473c6.214-2.262,11.252.942,11.252,7.156V602.14C1169.685,608.355,1164.646,615.226,1158.432,617.488Z" transform="translate(-1018.02 -560.829)"/><path class="av" d="M1158.194,616.879l-126.166,44.189c-6.087,2.216-11.021-.923-11.021-7.009V626.092c0-6.087,4.934-12.817,11.021-15.032l126.165-44.189c6.087-2.216,11.021.923,11.021,7.009v27.967C1169.214,607.934,1164.28,614.663,1158.194,616.879Z" transform="translate(-1018.26 -561.257)"/><path class="aw" d="M1157.955,616.269l-125.37,43.906c-5.958,2.169-10.788-.9-10.788-6.862V626.884c0-5.958,4.83-12.546,10.788-14.715l125.37-43.906c5.958-2.168,10.789.9,10.789,6.862v26.429C1168.744,607.513,1163.913,614.1,1157.955,616.269Z" transform="translate(-1018.499 -561.684)"/><path class="ax" d="M1157.717,615.66l-124.574,43.621c-5.83,2.122-10.556-.884-10.556-6.714v-24.89c0-5.83,4.726-12.276,10.556-14.4l124.574-43.622c5.83-2.121,10.557.885,10.557,6.714v24.89C1168.273,607.091,1163.547,613.538,1157.717,615.66Z" transform="translate(-1018.739 -562.111)"/><path class="ay" d="M1157.479,615.051,1033.7,658.389c-5.7,2.076-10.324-.865-10.324-6.567V628.471c0-5.7,4.622-12.007,10.324-14.082l123.779-43.337c5.7-2.076,10.324.864,10.324,6.566v23.352C1167.8,606.67,1163.18,612.976,1157.479,615.051Z" transform="translate(-1018.979 -562.539)"/><path class="az" d="M1157.24,614.442,1034.257,657.5c-5.574,2.029-10.092-.846-10.092-6.419V629.264c0-5.574,4.518-11.737,10.092-13.765l122.982-43.054c5.574-2.029,10.093.845,10.093,6.419v21.813C1167.332,606.25,1162.814,612.413,1157.24,614.442Z" transform="translate(-1019.218 -562.966)"/><path class="ba" d="M1157,613.833,1034.814,656.6c-5.446,1.982-9.86-.826-9.86-6.272V630.057c0-5.446,4.414-11.467,9.86-13.449L1157,573.838c5.446-1.982,9.86.825,9.86,6.271v20.275C1166.861,605.829,1162.447,611.851,1157,613.833Z" transform="translate(-1019.457 -563.394)"/><path class="bb" d="M1156.763,613.223,1035.371,655.71c-5.317,1.935-9.628-.807-9.628-6.124V630.85c0-5.318,4.311-11.2,9.628-13.133l121.392-42.486c5.318-1.936,9.628.806,9.628,6.123v18.736C1166.391,605.408,1162.081,611.288,1156.763,613.223Z" transform="translate(-1019.697 -563.821)"/><path class="bc" d="M1156.525,612.614l-120.6,42.2c-5.189,1.889-9.4-.787-9.4-5.977v-17.2c0-5.189,4.207-10.927,9.4-12.816l120.6-42.2c5.189-1.888,9.4.787,9.4,5.976v17.2C1165.921,604.987,1161.714,610.725,1156.525,612.614Z" transform="translate(-1019.937 -564.249)"/><path class="bd" d="M1156.286,612l-119.8,41.918c-5.061,1.842-9.164-.768-9.164-5.829V632.435c0-5.061,4.1-10.657,9.164-12.5l119.8-41.919c5.062-1.842,9.165.768,9.165,5.829v15.659C1165.45,604.566,1161.347,610.162,1156.286,612Z" transform="translate(-1020.176 -564.676)"/><path class="be" d="M1156.048,611.4l-119,41.634c-4.933,1.8-8.932-.748-8.932-5.681v-14.12c0-4.933,4-10.387,8.932-12.183l119-41.634c4.933-1.8,8.932.748,8.932,5.681v14.121C1164.98,604.145,1160.981,609.6,1156.048,611.4Z" transform="translate(-1020.416 -565.103)"/></g><g transform="translate(129.128 215.457)"><path class="bf" d="M1170.152,612.692l-126.083,45.891c-4.318,1.572-7.851-.676-7.851-4.994V632.909c0-4.318,3.533-9.137,7.851-10.708l126.083-45.891c4.318-1.572,7.851.676,7.851,4.994v20.681C1178,606.3,1174.47,611.121,1170.152,612.692Z" transform="translate(-1036.217 -575.808)"/><ellipse class="bg" cx="10.923" cy="7.575" rx="10.923" ry="7.575" transform="translate(4.884 67.282) rotate(-61.31)"/><path class="bh" d="M1166.377,606.439l-81.8,29.511v-5.725l81.8-29.511Z" transform="translate(-1050.894 -583.367)"/><path class="bh" d="M1122.859,645.7l-38.283,13.451v-5.725l38.283-13.451Z" transform="translate(-1050.894 -595.284)"/><path class="bg" d="M1224.926,607.577a.363.363,0,0,1-.329-.024.6.6,0,0,1-.045-.8l2.253-3.775-2.235-1.817a.639.639,0,0,1,.006-.817c.2-.293.513-.405.706-.249l2.56,2.081a.622.622,0,0,1,.018.777l-2.56,4.288A.759.759,0,0,1,1224.926,607.577Z" transform="translate(-1093.342 -583.159)"/></g><g transform="translate(129.128 264.372)"><path class="bf" d="M1170.152,682.924l-126.083,45.891c-4.318,1.572-7.851-.676-7.851-4.994V703.141c0-4.318,3.533-9.137,7.851-10.708l126.083-45.891c4.318-1.572,7.851.675,7.851,4.994v20.681C1178,676.534,1174.47,681.353,1170.152,682.924Z" transform="translate(-1036.217 -646.04)"/><ellipse class="bg" cx="10.923" cy="7.575" rx="10.923" ry="7.575" transform="translate(4.884 67.282) rotate(-61.31)"/><path class="bh" d="M1166.377,676.672l-81.8,29.511v-5.725l81.8-29.511Z" transform="translate(-1050.894 -653.599)"/><path class="bh" d="M1122.859,715.934l-38.283,13.451v-5.725l38.283-13.451Z" transform="translate(-1050.894 -665.516)"/><path class="bg" d="M1224.926,677.809a.363.363,0,0,1-.329-.024.6.6,0,0,1-.045-.8l2.253-3.775-2.235-1.817a.639.639,0,0,1,.006-.817c.2-.293.513-.4.706-.249l2.56,2.081a.622.622,0,0,1,.018.777l-2.56,4.288A.759.759,0,0,1,1224.926,677.809Z" transform="translate(-1093.342 -653.391)"/></g><g transform="translate(255.082)"><path class="bg" d="M1224.707,269.68c-.341.123-.616-.095-.616-.488v-1.764a1.049,1.049,0,0,1,.616-.936c.34-.123.616.095.616.488v1.763A1.05,1.05,0,0,1,1224.707,269.68Z" transform="translate(-1219.194 -266.459)"/><path class="bg" d="M1224.707,285.9c-.341.124-.616-.095-.616-.488v-1.763a1.049,1.049,0,0,1,.616-.936c.34-.123.616.095.616.488v1.763A1.05,1.05,0,0,1,1224.707,285.9Z" transform="translate(-1219.194 -271.38)"/><path class="bg" d="M1229.839,271.408a.421.421,0,0,1-.534-.162.942.942,0,0,1,.226-1.054l1.322-1.362c.3-.3.672-.325.842-.046a.942.942,0,0,1-.225,1.054l-1.322,1.362A.83.83,0,0,1,1229.839,271.408Z" transform="translate(-1220.752 -267.105)"/><path class="bg" d="M1217.677,283.94a.421.421,0,0,1-.533-.161.941.941,0,0,1,.226-1.054l1.322-1.362c.295-.3.671-.325.841-.046a.94.94,0,0,1-.225,1.054l-1.323,1.363A.831.831,0,0,1,1217.677,283.94Z" transform="translate(-1217.061 -270.909)"/><path class="bg" d="M1231.159,279.247a.489.489,0,0,1-.308.017l-1.322-.4c-.294-.089-.4-.488-.225-.89s.547-.656.841-.566l1.322.4c.295.089.4.488.225.89A.992.992,0,0,1,1231.159,279.247Z" transform="translate(-1220.751 -269.776)"/><path class="bg" d="M1219,275.559a.478.478,0,0,1-.307.017l-1.323-.4c-.295-.089-.4-.488-.225-.89s.547-.656.841-.566l1.322.4c.3.089.4.488.226.89A.989.989,0,0,1,1219,275.559Z" transform="translate(-1217.061 -268.657)"/><path class="bg" d="M1222.976,279.78c-2.53.921-4.588-.707-4.588-3.628a7.819,7.819,0,0,1,4.588-6.968c2.53-.921,4.589.707,4.589,3.628A7.819,7.819,0,0,1,1222.976,279.78Zm0-9.173a5.72,5.72,0,0,0-3.356,5.1c0,2.137,1.506,3.327,3.356,2.654a5.719,5.719,0,0,0,3.356-5.1C1226.332,271.125,1224.826,269.934,1222.976,270.608Z" transform="translate(-1217.463 -267.208)"/></g></g><g transform="translate(106.061 265.613)"><g transform="translate(0 296.502)"><path class="bi" d="M954.544,1020.153c-19.718,14.9-35.32,10.675-44.067,7.083-14.69-6.034-24.24-7.135-16.919,7.344,5.9,11.672,23.009,15.332,34.493,22.016,13.315,7.75,16.27-8.9,31.632-16.52C976.632,1031.671,954.544,1020.153,954.544,1020.153Z" transform="translate(-891.039 -1020.153)"/><g class="bj"><path class="bk" d="M959.742,1016.411c-19.566,14.784-35.047,10.593-43.728,7.028-14.576-5.987-24.053-7.08-16.789,7.288,5.857,11.583,22.832,15.214,34.228,21.847,13.213,7.69,16.145-8.834,31.389-16.393C981.661,1027.84,959.742,1016.411,959.742,1016.411Z" transform="translate(-892.765 -1019.017)"/></g></g><g transform="translate(155.291 325.541)"><path class="bl" d="M1144.889,1066.057c2.284,24.608-10.86,21.621-18.313,23.334-15.477,3.556-17.513,15.347-1.349,16.747,13.03,1.129,24.656,7.914,36.386,1.67,13.6-7.239,1-18.52,2.611-35.591C1166,1053.382,1144.889,1066.057,1144.889,1066.057Z" transform="translate(-1114.002 -1061.862)"/><g class="bm" transform="translate(0 0)"><path class="bk" d="M1144.047,1059.531c2.283,24.608-10.343,17.749-18,23.295-12.863,9.312-18.829,16.851-2.664,18.251,13.031,1.129,25.972,6.411,37.7.167,13.6-7.239,1-18.519,2.61-35.591C1165.469,1046.817,1144.047,1059.531,1144.047,1059.531Z" transform="translate(-1113.877 -1059.87)"/></g></g><path class="bn" d="M1287.051,706.838c1.311-3.672,10.2-5.053,13.836-6.1,7.253-2.087,27.673-11.082,29.214-7.607s-33.148,17.9-33.148,17.9Z" transform="translate(-1011.235 -624.155)"/><g transform="translate(252.129)"><g transform="translate(27.819 47.261)"><path class="p" d="M1332.667,701.394c4.727,6.592-34.717,8.746-33.57.717s-4.952-21.88-6.1-27.616c-.766-3.833,26.412-27.23,30.936,3.209C1324.949,684.525,1327.82,694.635,1332.667,701.394Z" transform="translate(-1292.983 -662.297)"/><g class="bo"><path class="af" d="M1329.141,686.13c1.279,5.41,33.05,33.838-23.018,29.313,0,0-4.86-18.951-14.657-18.146C1285.189,697.813,1329.141,686.13,1329.141,686.13Z" transform="translate(-1292.336 -669.531)"/></g></g><path class="q" d="M1263.591,596.654a24.358,24.358,0,0,1,22.487,1.143c3.388,1.943,7.813,1.374,11.058-.013,7.768-3.318,28.182,5.83,26.167,21.905-4.457,6.89-4.147,6.4-13,10.88-5.28,2.668-31.685-1.682-34.124,2.181l-4.708-4.74C1259.449,631.363,1241.284,606.87,1263.591,596.654Z" transform="translate(-1253.041 -594.44)"/><g class="bp"><path class="af" d="M1303.351,649.9c-4.7-7.3-17.136-11.895-16.581-16.992s-8.787-7.626-12.91-6.322c-22.243,7.037-16.113-.913-24.2,10.82-5.842,8.48,7.61,4.786,7.61,4.786l15.8,5.224,28.373,2.913Z" transform="translate(-1251.569 -604.093)"/></g><g transform="translate(23.136 23.466)"><path class="r" d="M1294.929,628.484c14.174,6.863,33.911,8.558,38.457,1.431-2.828,17.847-6.584,28.826-10.32,42.2l-17.812,2.77-19-31.912C1288.7,638.712,1289.487,625.85,1294.929,628.484Z" transform="translate(-1286.258 -628.132)"/><g class="bq"><path class="af" d="M1292.637,627.813a4.907,4.907,0,0,1,2.745,3.535c1.991,10.037,13.864,32.442,20.794,39.175,7.559,7.345-17.081,8.648-17.081,8.648l-16.49-47.137,9.933-4.267Z" transform="translate(-1285.149 -628.021)"/></g></g><g transform="translate(16.94 29.918)"><path class="p" d="M1296.245,653.555c1.424,3.454,2.767,9.258-.118,13,4.49,6.365,12.08,10.132,11.522,10.355-8.1,3.241-17,6.245-20,6.314-6.415.148-9.748-19.53-10.173-23.19-.678-5.83,1.93-6.6,2.62-12.327.39-3.245-2.263-9.318-2.263-9.318,4.71-2.218,5.516-1.633,10.615,11.578C1289.678,653.158,1291.9,643,1296.245,653.555Z" transform="translate(-1277.363 -637.396)"/><g class="br"><path class="af" d="M1298.813,683.932c-10.23-5.115-24.759-31.5-14.3-41.969,2.354-2.354,1.705-3.939.768-12.014-.914-7.875-5.724-16.612-7.932-19.123l16.76-3.668C1295.173,607.163,1347.48,708.266,1298.813,683.932Z" transform="translate(-1277.36 -628.219)"/></g></g><path class="af" d="M1296.425,663.168c-.389-5.806,1.893-6.224,3.081-4.192s3.012,11.462-.754,9.734C1297.089,667.948,1296.526,664.683,1296.425,663.168Z" transform="translate(-1266.195 -613.692)"/></g><path class="bs" d="M1303.428,875.519c-17.232,57.248-19.677,45.051-41.646,48s-53.5,3.148-65.3.2-3.436,10.623-4.914,40.133a241.293,241.293,0,0,1-10.651,60.132c-3.134,10.691-22.772,3.287-22.772-1.7,0-18.935,2.543-122.9,3.074-132.09.593-10.274,6.76-12.447,27.438-12.447s62.457-4.787,78.963-5.968S1303.428,875.519,1303.428,875.519Z" transform="translate(-972.108 -678.562)"/><path class="bt" d="M1261.668,888.561c-2.409,29.208-15.539,52.179-65.031,63.983-25.778,6.148-77.49-13.276-91.644-16.227s-20.422-3.672-43.23,13.64c-37.777,28.673-60.812,45.466-76.55,51.858-10.5,4.265-24.238-13.718-15.757-21.037,15.1-13.028,79.344-69.093,97.239-83.807,10.767-8.853,6.821-8.065,31.609-8.065s61.948-1.562,81.735-2.743S1261.668,888.561,1261.668,888.561Z" transform="translate(-914.038 -682.91)"/><path class="p" d="M1139.282,834.17s-13.231-16.01-15.2-17.19-10.256-2.787-11.3-5.016-.59-8.755,1.181-10.525.967-3.165-2.459-6.591c-4.23-4.229-1.062-6.437,2.656-2.8,3.392,3.322,5.935,5.536,8.361,7.962s4.558,2.016,4.886-1.918,1.311-8.475,3.606-4.729-.558,9.227,1.771,12.4,12.923,12.243,12.923,12.243Z" transform="translate(-957.342 -653.86)"/><g transform="translate(181.094 68.978)"><path class="s" d="M1309.834,700.243c-7.1-5.586-15.6.217-21.011-6.766-5.308,6.268-41.543,15.541-43.051,13.706,0,0-4.262,13.891-11.147,19.274-4.742,3.707-9.991,6.695-12.609,9.995-.1-.094-12.067,26.211-23.563,40.414-13.278,16.4-17.61,23.571-21.617,21.11s-16.774-8.26-18.512-9.326-11.395,14.593-5.251,19.866,25.14,20.417,33.547,19.484c6.367-.706,32.1-26.457,46.425-43.9,5.955,21.346-5.572,49.235-4.411,59.6,2.677,23.907,79.142,18.394,88.954-13.552C1326.327,796.537,1328.882,715.226,1309.834,700.243Z" transform="translate(-1151.05 -693.477)"/><g class="bu"><path class="bv" d="M1285.729,692.12c-.7,9.405-28.416,19.949-39.349,35.006s-45.971,85.287-62.725,90.533-4.685,14.233,4.405,14.233,28.238-8.356,28.238-8.356l27.805,45.341,77.9-21.771,20.984-23.57-7.344-106.272L1319.91,676.3l-11.279-6.774-19.935,2.934Z" transform="translate(-1158.405 -686.207)"/></g></g><path class="bw" d="M1178.8,840.026c.413,11.2-2.117,22.973-4.062,32.508-20.6,1.128-53.708,2.44-76.428,2.44-24.788,0-20.842-.787-31.609,8.065-17.9,14.715-82.144,70.78-97.24,83.807-3.1,2.676-3.223,6.776-1.628,10.695h0c13.1-13.555,59.009-57.732,76.559-71.412,16.169-12.6,23.8-27.47,51.94-23.583s61.983,0,79.453,9.718c5.939,3.3,12.194-7.927,10.3-30.249C1184.9,848.008,1183.964,842.422,1178.8,840.026Z" transform="translate(-914.04 -668.979)"/></g></g></g></svg>